<svg width="281" height="217" viewBox="0 0 281 217" fill="none" xmlns="http://www.w3.org/2000/svg">
<rect width="268" height="217" transform="translate(13)" fill="white"/>
<rect x="30" y="8" width="234" height="37" rx="4" fill="#F5F5F5"/>
<rect x="18" y="49" width="258" height="37" rx="4" fill="#FF4F00"/>
<path d="M183.152 70.5713C183.403 70.5713 183.597 70.6442 183.733 70.79C183.875 70.9313 183.945 71.1136 183.945 71.3369C183.945 71.5557 183.875 71.7334 183.733 71.8701C183.597 72.0068 183.403 72.0752 183.152 72.0752C182.906 72.0752 182.713 72.0068 182.571 71.8701C182.435 71.7288 182.366 71.5511 182.366 71.3369C182.366 71.1136 182.435 70.9313 182.571 70.79C182.713 70.6442 182.906 70.5713 183.152 70.5713ZM186.857 70.5713C187.108 70.5713 187.302 70.6442 187.438 70.79C187.58 70.9313 187.65 71.1136 187.65 71.3369C187.65 71.5557 187.58 71.7334 187.438 71.8701C187.302 72.0068 187.108 72.0752 186.857 72.0752C186.611 72.0752 186.418 72.0068 186.276 71.8701C186.14 71.7288 186.071 71.5511 186.071 71.3369C186.071 71.1136 186.14 70.9313 186.276 70.79C186.418 70.6442 186.611 70.5713 186.857 70.5713ZM190.562 70.5713C190.813 70.5713 191.007 70.6442 191.144 70.79C191.285 70.9313 191.355 71.1136 191.355 71.3369C191.355 71.5557 191.285 71.7334 191.144 71.8701C191.007 72.0068 190.813 72.0752 190.562 72.0752C190.316 72.0752 190.123 72.0068 189.981 71.8701C189.845 71.7288 189.776 71.5511 189.776 71.3369C189.776 71.1136 189.845 70.9313 189.981 70.79C190.123 70.6442 190.316 70.5713 190.562 70.5713ZM196.947 64.9658H192.941V63.9473H198.198V74.8438H196.947V64.9658ZM206.114 64.7471L203.161 72H201.801L204.72 64.9658H199.996V61.5H201.261V63.9473H206.114V64.7471ZM209.088 70.5713C209.525 70.7581 209.986 70.904 210.469 71.0088C210.952 71.1136 211.412 71.166 211.85 71.166C212.506 71.166 213.091 71.0726 213.606 70.8857C214.121 70.6943 214.527 70.4072 214.823 70.0244C215.119 69.637 215.268 69.1608 215.268 68.5957V63.9473H216.498V68.7119C216.498 69.4684 216.293 70.1087 215.883 70.6328C215.477 71.1523 214.928 71.542 214.235 71.8018C213.543 72.0615 212.768 72.1914 211.911 72.1914C211.246 72.1914 210.562 72.1139 209.86 71.959C209.159 71.7995 208.491 71.5671 207.857 71.2617V63.9473H209.088V70.5713ZM211.022 69.7783C211.191 69.6006 211.319 69.3568 211.405 69.0469C211.492 68.7324 211.535 68.3678 211.535 67.9531V63.9473H212.772V67.7275C212.772 68.1924 212.715 68.598 212.602 68.9443C212.488 69.2861 212.312 69.5778 212.075 69.8193L211.022 69.7783ZM225.733 63.9473C226.8 63.9473 227.595 64.2025 228.119 64.7129C228.648 65.2188 228.912 65.9912 228.912 67.0303V72H227.647L227.641 66.9551C227.641 66.2578 227.49 65.752 227.189 65.4375C226.893 65.123 226.412 64.9658 225.747 64.9658H224.605C224.455 65.2119 224.334 65.5286 224.243 65.916C224.157 66.2988 224.113 66.693 224.113 67.0986V69.8125C224.113 70.5508 223.938 71.1113 223.587 71.4941C223.236 71.877 222.726 72.0684 222.056 72.0684C221.86 72.0684 221.598 72.0479 221.27 72.0068V70.9883C221.415 71.0065 221.573 71.0156 221.741 71.0156C222.138 71.0156 222.425 70.9131 222.603 70.708C222.785 70.5029 222.876 70.1794 222.876 69.7373V67.1943C222.876 66.7796 222.931 66.3672 223.04 65.957C223.149 65.5423 223.3 65.2119 223.491 64.9658H221.98V63.9473H225.733ZM231.811 64.9658H230.334V63.9473H233.082V68.4385H231.811V64.9658ZM235.898 72.1367C235.479 72.1367 235.044 72.0866 234.593 71.9863L234.627 70.9951C234.923 71.0544 235.256 71.084 235.625 71.084C235.999 71.084 236.279 70.9769 236.466 70.7627C236.653 70.5485 236.746 70.2181 236.746 69.7715V64.9658H235.167V63.9473H238.018V69.874C238.018 70.6123 237.835 71.1751 237.471 71.5625C237.106 71.9453 236.582 72.1367 235.898 72.1367ZM246.289 71.0293V72H239.672V70.9746H244.047V66.9482C244.047 66.251 243.89 65.7474 243.575 65.4375C243.265 65.123 242.759 64.9658 242.058 64.9658H240.109V63.9473H242.126C243.179 63.9473 243.972 64.2025 244.505 64.7129C245.043 65.2233 245.312 65.9798 245.312 66.9824V70.9268L246.289 71.0293ZM251.163 63.9473C252.229 63.9473 253.025 64.2025 253.549 64.7129C254.077 65.2188 254.342 65.9912 254.342 67.0303V72H253.077L253.07 66.9551C253.07 66.2578 252.92 65.752 252.619 65.4375C252.323 65.123 251.842 64.9658 251.177 64.9658H250.035C249.885 65.2119 249.764 65.5286 249.673 65.916C249.586 66.2988 249.543 66.693 249.543 67.0986V69.8125C249.543 70.5508 249.368 71.1113 249.017 71.4941C248.666 71.877 248.155 72.0684 247.485 72.0684C247.289 72.0684 247.027 72.0479 246.699 72.0068V70.9883C246.845 71.0065 247.002 71.0156 247.171 71.0156C247.567 71.0156 247.854 70.9131 248.032 70.708C248.215 70.5029 248.306 70.1794 248.306 69.7373V67.1943C248.306 66.7796 248.36 66.3672 248.47 65.957C248.579 65.5423 248.729 65.2119 248.921 64.9658H247.41V63.9473H251.163ZM261.308 66.9482C261.308 66.251 261.15 65.7474 260.836 65.4375C260.521 65.123 260.016 64.9658 259.318 64.9658H256.399V63.9473H259.38C260.433 63.9473 261.228 64.2025 261.766 64.7129C262.308 65.2233 262.579 65.9798 262.579 66.9824V72H261.308V66.9482ZM256.413 69.252C256.413 68.8372 256.443 68.5114 256.502 68.2744C256.566 68.0329 256.655 67.7913 256.769 67.5498H257.808C257.753 67.7594 257.712 67.9919 257.685 68.2471C257.657 68.5023 257.644 68.8099 257.644 69.1699V72H256.413V69.252Z" fill="white"/>
<rect x="30" y="90" width="234" height="37" rx="4" fill="#F5F5F5"/>
<rect x="30" y="131" width="234" height="37" rx="4" fill="#F5F5F5"/>
<rect x="30" y="172" width="234" height="37" rx="4" fill="#F5F5F5"/>
<rect x="2" y="142" width="56" height="56" rx="14" fill="#F5F5F5"/>
<path d="M19.5742 156.672V183.328L21.1133 182.352L40.4258 170L19.5742 156.672ZM21.5742 160.32L36.7227 170L21.5742 179.672V160.32Z" fill="#FF4F00"/>
<rect x="2" y="142" width="56" height="56" rx="14" stroke="white" stroke-width="4"/>
</svg>
