<svg width="96" height="33" viewBox="0 0 96 33" fill="none" xmlns="http://www.w3.org/2000/svg">
<path d="M6.41992 24.332C8.07747 24.332 9.02995 23.7383 9.27734 22.5508C9.30208 22.3776 9.31445 22.2168 9.31445 22.0684C9.31445 20.8066 8.52279 19.7552 6.93945 18.9141C6.5931 18.7161 6.03646 18.4564 5.26953 18.1348C3.41406 17.3184 2.18945 16.5638 1.5957 15.8711C0.952474 15.1289 0.630859 14.2507 0.630859 13.2363C0.630859 11.1335 1.78125 9.71094 4.08203 8.96875C5.04688 8.64714 6.12305 8.48633 7.31055 8.48633C9.24023 8.48633 10.7493 8.83268 11.8379 9.52539C11.8379 8.7832 12.0605 8.375 12.5059 8.30078C12.6048 8.27604 12.7038 8.26367 12.8027 8.26367V12.9023H11.6152C11.5163 10.651 10.2917 9.51302 7.94141 9.48828C6.35807 9.48828 5.38086 10.0078 5.00977 11.0469C4.93555 11.2943 4.89844 11.5417 4.89844 11.7891C4.89844 12.8529 5.64062 13.7559 7.125 14.498C7.42188 14.6712 7.91667 14.9062 8.60938 15.2031C10.5391 16.069 11.8255 16.8607 12.4688 17.5781C13.2109 18.4193 13.582 19.4212 13.582 20.584C13.582 22.7363 12.4688 24.1836 10.2422 24.9258C9.32682 25.2227 8.30013 25.3711 7.16211 25.3711C4.98503 25.3711 3.1543 24.9876 1.66992 24.2207C1.66992 24.8639 1.50911 25.235 1.1875 25.334C1.03906 25.3587 0.865885 25.3711 0.667969 25.3711V19.7305H1.92969C1.97917 22.7734 3.47591 24.3073 6.41992 24.332ZM13.352 10.1934H15.9125V19.4707C15.9125 23.0579 17.3969 25.0247 20.3656 25.3711C20.6625 25.3958 20.9594 25.4082 21.2563 25.4082C23.1612 25.4082 24.4724 24.7897 25.1898 23.5527C25.5362 22.9342 25.8083 22.1178 26.0063 21.1035L25.0043 20.9551C24.5095 22.959 23.7797 24.0599 22.8148 24.2578C22.6664 24.2826 22.518 24.2949 22.3695 24.2949C21.4542 24.2949 20.8975 23.6517 20.6996 22.3652C20.6501 22.0684 20.6254 21.7591 20.6254 21.4375V10.1934H25.5238V9.22852H20.6254V4.92383L15.9125 5.70312V9.22852H13.352V10.1934ZM33.7176 9.45117C35.3009 9.50065 36.1049 10.849 36.1297 13.4961C36.1297 14.6589 35.7833 15.3763 35.0906 15.6484C34.5958 15.8216 33.8536 15.8835 32.8641 15.834L30.4891 15.7227C30.6622 11.6159 31.7384 9.52539 33.7176 9.45117ZM40.657 21.1777L39.7664 20.8809C39.0737 22.39 37.9852 23.4167 36.5008 23.9609C35.907 24.1836 35.3009 24.2949 34.6824 24.2949C32.7033 24.2949 31.4292 23.0332 30.8602 20.5098C30.6375 19.4707 30.5138 18.2337 30.4891 16.7988L33.9031 16.9102C37.8862 17.0339 40.1993 16.403 40.8426 15.0176C40.991 14.6712 41.0652 14.2878 41.0652 13.8672C41.0652 11.7643 39.9891 10.2305 37.8367 9.26562C36.6245 8.74609 35.2514 8.48633 33.7176 8.48633C30.922 8.48633 28.7449 9.4388 27.1863 11.3438C25.9988 12.8281 25.4051 14.6712 25.4051 16.873C25.4051 20.4603 26.7534 22.959 29.45 24.3691C30.7365 25.0371 32.1961 25.3711 33.8289 25.3711C36.7234 25.3711 38.8016 24.3568 40.0633 22.3281C40.3107 21.957 40.5086 21.5736 40.657 21.1777ZM47.6262 31.0859V23.6641C48.591 24.7526 50.063 25.3216 52.0422 25.3711C54.4914 25.3711 56.4582 24.431 57.9426 22.5508C59.1796 20.918 59.798 18.8893 59.798 16.4648C59.798 13.3229 58.8579 11.0469 56.9777 9.63672C55.9634 8.86979 54.8007 8.48633 53.4895 8.48633C51.5103 8.48633 49.9022 9.21615 48.6652 10.6758C48.1704 11.2695 47.7993 11.9128 47.552 12.6055L47.3664 9.04297H40.798V10.0078H42.9133V29.1562C42.9133 30.2201 42.5051 30.8385 41.6887 31.0117C41.4165 31.0612 41.1197 31.0859 40.798 31.0859V32.0508H50.4465C50.4465 31.4818 50.2857 31.1725 49.9641 31.123C49.8156 31.0983 49.6672 31.0859 49.5187 31.0859H47.6262ZM51.5227 10.2676C53.6503 10.3171 54.7141 12.5684 54.7141 17.0215C54.6893 21.8952 53.5389 24.3444 51.2629 24.3691C49.927 24.3691 48.925 23.5527 48.257 21.9199C47.8117 20.7819 47.5891 19.3841 47.5891 17.7266C47.5891 14.6341 48.257 12.4323 49.593 11.1211C50.1867 10.5521 50.8299 10.2676 51.5227 10.2676ZM70.775 25.3711C73.1995 25.3711 75.1415 24.4557 76.6012 22.625C77.8876 21.0169 78.5309 18.9759 78.5309 16.502C78.5309 13.2858 77.5289 10.9727 75.525 9.5625C74.4859 8.84505 73.3355 8.48633 72.0738 8.48633C69.5257 8.51107 67.6083 9.77279 66.3219 12.2715V0.878906H59.4938V1.88086H61.609V22.0684C61.609 23.1322 61.2008 23.7507 60.3844 23.9238C60.1122 23.9733 59.8154 23.998 59.4938 23.998V25H65.1715L65.4684 22.4023C66.7796 24.3568 68.5484 25.3464 70.775 25.3711ZM70.2555 10.2676C72.3831 10.3171 73.4469 12.5684 73.4469 17.0215C73.4221 21.8952 72.2717 24.3444 69.9957 24.3691C68.3876 24.3691 67.2991 23.3053 66.7301 21.1777C66.4579 20.1882 66.3219 19.0378 66.3219 17.7266C66.3219 14.3372 67.0393 12.0612 68.4742 10.8984C69.0185 10.4779 69.6122 10.2676 70.2555 10.2676ZM82.4941 30.9375C82.0488 30.9375 81.6901 30.6035 81.418 29.9355C81.0716 29.0697 80.7624 28.5254 80.4902 28.3027C80.1686 28.0801 79.7975 27.9688 79.377 27.9688C78.4863 27.9688 77.9173 28.3522 77.6699 29.1191C77.6204 29.3171 77.5957 29.5026 77.5957 29.6758C77.5957 30.4922 78.0905 31.1602 79.0801 31.6797C79.7728 32.0508 80.5768 32.2363 81.4922 32.2363C83.5703 32.2363 85.2897 31.0365 86.6504 28.6367C87.1699 27.7708 87.6647 26.7194 88.1348 25.4824L93.7012 11.0469C94.1217 10.3789 94.5299 10.0202 94.9258 9.9707C95.4701 9.9707 95.7669 9.78516 95.8164 9.41406C95.8411 9.29036 95.8535 9.16667 95.8535 9.04297H90.1016V9.9707H92.8848L88.8398 20.3242L84.3496 9.9707H86.6133V9.04297H77.8926V9.9707H79.4512L86.6875 25.7793C85.5 28.7233 84.362 30.3932 83.2734 30.7891C83.0013 30.888 82.7415 30.9375 82.4941 30.9375Z" fill="#FF4F00"/>
</svg>
