<svg width="201" height="67" viewBox="0 0 201 67" fill="none" xmlns="http://www.w3.org/2000/svg">
<path d="M12.4536 49.5938C15.9432 49.5938 17.9484 48.3438 18.4692 45.8438C18.5213 45.4792 18.5474 45.1406 18.5474 44.8281C18.5474 42.1719 16.8807 39.9583 13.5474 38.1875C12.8182 37.7708 11.6463 37.224 10.0317 36.5469C6.12549 34.8281 3.54736 33.2396 2.29736 31.7812C0.943197 30.2188 0.266113 28.3698 0.266113 26.2344C0.266113 21.8073 2.68799 18.8125 7.53174 17.25C9.56299 16.5729 11.8286 16.2344 14.3286 16.2344C18.3911 16.2344 21.5682 16.9635 23.8599 18.4219C23.8599 16.8594 24.3286 16 25.2661 15.8438C25.4744 15.7917 25.6828 15.7656 25.8911 15.7656V25.5312H23.3911C23.1828 20.7917 20.6047 18.3958 15.6567 18.3438C12.3234 18.3438 10.2661 19.4375 9.48486 21.625C9.32861 22.1458 9.25049 22.6667 9.25049 23.1875C9.25049 25.4271 10.813 27.3281 13.938 28.8906C14.563 29.2552 15.6047 29.75 17.063 30.375C21.1255 32.1979 23.8338 33.8646 25.188 35.375C26.7505 37.1458 27.5317 39.2552 27.5317 41.7031C27.5317 46.2344 25.188 49.2812 20.5005 50.8438C18.5734 51.4688 16.4119 51.7812 14.0161 51.7812C9.43278 51.7812 5.57861 50.974 2.45361 49.3594C2.45361 50.7135 2.11507 51.4948 1.43799 51.7031C1.12549 51.7552 0.760905 51.7812 0.344238 51.7812V39.9062H3.00049C3.10465 46.3125 6.2557 49.5417 12.4536 49.5938ZM27.0474 19.8281H32.438V39.3594C32.438 46.9115 35.563 51.0521 41.813 51.7812C42.438 51.8333 43.063 51.8594 43.688 51.8594C47.6984 51.8594 50.4588 50.5573 51.9692 47.9531C52.6984 46.651 53.2713 44.9323 53.688 42.7969L51.5786 42.4844C50.5369 46.7031 49.0005 49.0208 46.9692 49.4375C46.6567 49.4896 46.3442 49.5156 46.0317 49.5156C44.1047 49.5156 42.9328 48.1615 42.5161 45.4531C42.4119 44.8281 42.3599 44.1771 42.3599 43.5V19.8281H52.6724V17.7969H42.3599V8.73438L32.438 10.375V17.7969H27.0474V19.8281ZM69.9224 18.2656C73.2557 18.3698 74.9484 21.2083 75.0005 26.7812C75.0005 29.2292 74.2713 30.7396 72.813 31.3125C71.7713 31.6771 70.2088 31.8073 68.1255 31.7031L63.1255 31.4688C63.4901 22.8229 65.7557 18.4219 69.9224 18.2656ZM84.5317 42.9531L82.6567 42.3281C81.1984 45.5052 78.9067 47.6667 75.7817 48.8125C74.5317 49.2812 73.2557 49.5156 71.9536 49.5156C67.7869 49.5156 65.1047 46.8594 63.9067 41.5469C63.438 39.3594 63.1776 36.7552 63.1255 33.7344L70.313 33.9688C78.6984 34.2292 83.5682 32.901 84.9224 29.9844C85.2349 29.2552 85.3911 28.4479 85.3911 27.5625C85.3911 23.1354 83.1255 19.9062 78.5942 17.875C76.0422 16.7812 73.1515 16.2344 69.9224 16.2344C64.0369 16.2344 59.4536 18.2396 56.1724 22.25C53.6724 25.375 52.4224 29.2552 52.4224 33.8906C52.4224 41.4427 55.2609 46.7031 60.938 49.6719C63.6463 51.0781 66.7192 51.7812 70.1567 51.7812C76.2505 51.7812 80.6255 49.6458 83.2817 45.375C83.8026 44.5938 84.2192 43.7865 84.5317 42.9531ZM99.2036 63.8125V48.1875C101.235 50.4792 104.334 51.6771 108.5 51.7812C113.657 51.7812 117.797 49.8021 120.922 45.8438C123.527 42.4062 124.829 38.1354 124.829 33.0312C124.829 26.4167 122.849 21.625 118.891 18.6562C116.756 17.0417 114.308 16.2344 111.547 16.2344C107.381 16.2344 103.995 17.7708 101.391 20.8438C100.349 22.0938 99.5682 23.4479 99.0474 24.9062L98.6567 17.4062H84.8286V19.4375H89.2817V59.75C89.2817 61.9896 88.4224 63.2917 86.7036 63.6562C86.1307 63.7604 85.5057 63.8125 84.8286 63.8125V65.8438H105.141C105.141 64.6458 104.803 63.9948 104.125 63.8906C103.813 63.8385 103.5 63.8125 103.188 63.8125H99.2036ZM107.407 19.9844C111.886 20.0885 114.125 24.8281 114.125 34.2031C114.073 44.4635 111.652 49.6198 106.86 49.6719C104.047 49.6719 101.938 47.9531 100.532 44.5156C99.5942 42.1198 99.1255 39.1771 99.1255 35.6875C99.1255 29.1771 100.532 24.5417 103.344 21.7812C104.594 20.5833 105.948 19.9844 107.407 19.9844ZM147.938 51.7812C153.042 51.7812 157.131 49.8542 160.204 46C162.912 42.6146 164.266 38.3177 164.266 33.1094C164.266 26.3385 162.157 21.4688 157.938 18.5C155.75 16.9896 153.329 16.2344 150.672 16.2344C145.308 16.2865 141.271 18.9427 138.563 24.2031V0.21875H124.188V2.32812H128.641V44.8281C128.641 47.0677 127.782 48.3698 126.063 48.7344C125.49 48.8385 124.865 48.8906 124.188 48.8906V51H136.141L136.766 45.5312C139.527 49.6458 143.25 51.7292 147.938 51.7812ZM146.844 19.9844C151.323 20.0885 153.563 24.8281 153.563 34.2031C153.511 44.4635 151.089 49.6198 146.297 49.6719C142.912 49.6719 140.62 47.4323 139.422 42.9531C138.849 40.8698 138.563 38.4479 138.563 35.6875C138.563 28.5521 140.073 23.7604 143.094 21.3125C144.24 20.4271 145.49 19.9844 146.844 19.9844ZM172.61 63.5C171.672 63.5 170.917 62.7969 170.344 61.3906C169.615 59.5677 168.964 58.4219 168.391 57.9531C167.714 57.4844 166.933 57.25 166.047 57.25C164.172 57.25 162.974 58.0573 162.454 59.6719C162.349 60.0885 162.297 60.4792 162.297 60.8438C162.297 62.5625 163.339 63.9688 165.422 65.0625C166.881 65.8438 168.573 66.2344 170.5 66.2344C174.875 66.2344 178.495 63.7083 181.36 58.6562C182.454 56.8333 183.495 54.6198 184.485 52.0156L196.204 21.625C197.089 20.2188 197.948 19.4635 198.782 19.3594C199.928 19.3594 200.553 18.9688 200.657 18.1875C200.709 17.9271 200.735 17.6667 200.735 17.4062H188.625V19.3594H194.485L185.969 41.1562L176.516 19.3594H181.282V17.4062H162.922V19.3594H166.204L181.438 52.6406C178.938 58.8385 176.542 62.3542 174.25 63.1875C173.678 63.3958 173.131 63.5 172.61 63.5Z" fill="white"/>
</svg>
