<svg width="4" height="16" viewBox="0 0 4 16" fill="none" xmlns="http://www.w3.org/2000/svg">
<path d="M3.26758 3.58203C2.92383 3.92578 2.49414 4.09766 1.97852 4.09766C1.49154 4.09766 1.06185 3.92578 0.689453 3.58203C0.345703 3.20964 0.173828 2.76562 0.173828 2.25C0.173828 1.73438 0.345703 1.30469 0.689453 0.960938C1.06185 0.588542 1.49154 0.402344 1.97852 0.402344C2.49414 0.402344 2.92383 0.588542 3.26758 0.960938C3.63997 1.30469 3.82617 1.73438 3.82617 2.25C3.82617 2.76562 3.63997 3.20964 3.26758 3.58203ZM0.689453 6.46094C1.06185 6.08854 1.49154 5.90234 1.97852 5.90234C2.49414 5.90234 2.92383 6.08854 3.26758 6.46094C3.63997 6.80469 3.82617 7.23438 3.82617 7.75C3.82617 8.26562 3.63997 8.70964 3.26758 9.08203C2.92383 9.42578 2.49414 9.59766 1.97852 9.59766C1.49154 9.59766 1.06185 9.42578 0.689453 9.08203C0.345703 8.70964 0.173828 8.26562 0.173828 7.75C0.173828 7.23438 0.345703 6.80469 0.689453 6.46094ZM0.689453 11.9609C1.06185 11.5885 1.49154 11.4023 1.97852 11.4023C2.49414 11.4023 2.92383 11.5885 3.26758 11.9609C3.63997 12.3047 3.82617 12.7344 3.82617 13.25C3.82617 13.7656 3.63997 14.2096 3.26758 14.582C2.92383 14.9258 2.49414 15.0977 1.97852 15.0977C1.49154 15.0977 1.06185 14.9258 0.689453 14.582C0.345703 14.2096 0.173828 13.7656 0.173828 13.25C0.173828 12.7344 0.345703 12.3047 0.689453 11.9609Z" fill="#4B4F57"/>
</svg>
