<svg width="20" height="20" viewBox="0 0 20 20" fill="none" xmlns="http://www.w3.org/2000/svg">
<path d="M9.96899 0.00012207C4.59009 0.00012207 0.218994 4.37122 0.218994 9.75012C0.218994 15.129 4.59009 19.5001 9.96899 19.5001C15.3479 19.5001 19.719 15.129 19.719 9.75012V9.00012H18.219V9.75012C18.219 14.3146 14.5334 18.0001 9.96899 18.0001C5.40454 18.0001 1.71899 14.3146 1.71899 9.75012C1.71899 5.18567 5.40454 1.50012 9.96899 1.50012C12.4299 1.50012 14.6155 2.58411 16.1272 4.28918L14.4163 6.00012H19.719V0.697388L17.1877 3.22864C15.4006 1.25403 12.8342 0.00012207 9.96899 0.00012207Z" fill="#FF4F00"/>
</svg>
