<svg width="20" height="20" viewBox="0 0 20 20" fill="none" xmlns="http://www.w3.org/2000/svg">
<path d="M9.75 0.5C4.37695 0.5 0 4.87695 0 10.25C0 15.623 4.37695 20 9.75 20C15.123 20 19.5 15.623 19.5 10.25C19.5 4.87695 15.123 0.5 9.75 0.5ZM9.75 2C14.3145 2 18 5.68555 18 10.25C18 14.8145 14.3145 18.5 9.75 18.5C5.18555 18.5 1.5 14.8145 1.5 10.25C1.5 5.68555 5.18555 2 9.75 2ZM13.7168 6.72266L8.25 12.1895L5.77734 9.72266L4.72266 10.7773L8.25 14.3105L14.7832 7.77734L13.7168 6.72266Z" fill="#FF4F00"/>
</svg>
