<svg width="20" height="20" viewBox="0 0 20 20" fill="none" xmlns="http://www.w3.org/2000/svg">
<path d="M9.75031 0.00012207C4.37726 0.00012207 0.000305176 4.37708 0.000305176 9.75012C0.000305176 15.1232 4.37726 19.5001 9.75031 19.5001C15.1234 19.5001 19.5003 15.1232 19.5003 9.75012C19.5003 4.37708 15.1234 0.00012207 9.75031 0.00012207ZM9.75031 1.50012C14.3148 1.50012 18.0003 5.18567 18.0003 9.75012C18.0003 14.3146 14.3148 18.0001 9.75031 18.0001C5.18585 18.0001 1.50031 14.3146 1.50031 9.75012C1.50031 5.18567 5.18585 1.50012 9.75031 1.50012ZM13.7171 6.22278L8.25031 11.6896L5.77765 9.22278L4.72296 10.2775L8.25031 13.8107L14.7835 7.27747L13.7171 6.22278Z" fill="#FF4F00"/>
</svg>
