<svg width="17" height="20" viewBox="0 0 17 20" fill="none" xmlns="http://www.w3.org/2000/svg">
<path d="M7.24445 0.00012207C6.01398 0.00012207 5.00031 1.01379 5.00031 2.24426V3.00012H0.500305V4.50012H2.00031V17.2501C2.00031 18.4923 3.00812 19.5001 4.25031 19.5001H13.2503C14.4925 19.5001 15.5003 18.4923 15.5003 17.2501V4.50012H17.0003V3.00012H12.5003V2.24426C12.5003 1.01379 11.4866 0.00012207 10.2562 0.00012207H7.24445ZM7.24445 1.50012H10.2562C10.678 1.50012 11.0003 1.82239 11.0003 2.24426V3.00012H6.50031V2.24426C6.50031 1.82239 6.82257 1.50012 7.24445 1.50012ZM5.00031 6.00012H6.50031V16.5001H5.00031V6.00012ZM8.00031 6.00012H9.50031V16.5001H8.00031V6.00012ZM11.0003 6.00012H12.5003V16.5001H11.0003V6.00012Z" fill="#EF0E0E"/>
</svg>
