<svg width="18" height="18" viewBox="0 0 18 18" fill="none" xmlns="http://www.w3.org/2000/svg">
<path d="M0.99987 0.200031C0.893861 0.198532 0.788611 0.218117 0.690236 0.257648C0.591861 0.297179 0.502325 0.355868 0.426829 0.430303C0.351333 0.504739 0.291384 0.593437 0.250466 0.691243C0.209548 0.789048 0.188477 0.894011 0.188477 1.00003C0.188477 1.10605 0.209548 1.21101 0.250466 1.30882C0.291384 1.40663 0.351333 1.49532 0.426829 1.56976C0.502325 1.64419 0.591861 1.70288 0.690236 1.74241C0.788611 1.78195 0.893861 1.80153 0.99987 1.80003H16.9999C17.1059 1.80153 17.2111 1.78195 17.3095 1.74241C17.4079 1.70288 17.4974 1.64419 17.5729 1.56976C17.6484 1.49532 17.7084 1.40663 17.7493 1.30882C17.7902 1.21101 17.8113 1.10605 17.8113 1.00003C17.8113 0.894011 17.7902 0.789048 17.7493 0.691243C17.7084 0.593437 17.6484 0.504739 17.5729 0.430303C17.4974 0.355868 17.4079 0.297179 17.3095 0.257648C17.2111 0.218117 17.1059 0.198532 16.9999 0.200031H0.99987ZM7.39987 4.20003C7.29386 4.19853 7.18861 4.21812 7.09023 4.25765C6.99186 4.29718 6.90232 4.35587 6.82683 4.4303C6.75133 4.50474 6.69138 4.59344 6.65047 4.69124C6.60955 4.78905 6.58848 4.89401 6.58848 5.00003C6.58848 5.10605 6.60955 5.21101 6.65047 5.30882C6.69138 5.40663 6.75133 5.49532 6.82683 5.56976C6.90232 5.6442 6.99186 5.70288 7.09023 5.74241C7.18861 5.78195 7.29386 5.80153 7.39987 5.80003H16.9999C17.1059 5.80153 17.2111 5.78195 17.3095 5.74241C17.4079 5.70288 17.4974 5.6442 17.5729 5.56976C17.6484 5.49532 17.7084 5.40663 17.7493 5.30882C17.7902 5.21101 17.8113 5.10605 17.8113 5.00003C17.8113 4.89401 17.7902 4.78905 17.7493 4.69124C17.7084 4.59344 17.6484 4.50474 17.5729 4.4303C17.4974 4.35587 17.4079 4.29718 17.3095 4.25765C17.2111 4.21812 17.1059 4.19853 16.9999 4.20003H7.39987ZM0.99987 8.20003C0.893861 8.19853 0.788611 8.21812 0.690236 8.25765C0.591861 8.29718 0.502325 8.35587 0.426829 8.4303C0.351333 8.50474 0.291384 8.59344 0.250466 8.69124C0.209548 8.78905 0.188477 8.89401 0.188477 9.00003C0.188477 9.10605 0.209548 9.21101 0.250466 9.30882C0.291384 9.40663 0.351333 9.49532 0.426829 9.56976C0.502325 9.6442 0.591861 9.70288 0.690236 9.74242C0.788611 9.78195 0.893861 9.80153 0.99987 9.80003H16.9999C17.1059 9.80153 17.2111 9.78195 17.3095 9.74242C17.4079 9.70288 17.4974 9.6442 17.5729 9.56976C17.6484 9.49532 17.7084 9.40663 17.7493 9.30882C17.7902 9.21101 17.8113 9.10605 17.8113 9.00003C17.8113 8.89401 17.7902 8.78905 17.7493 8.69124C17.7084 8.59344 17.6484 8.50474 17.5729 8.4303C17.4974 8.35587 17.4079 8.29718 17.3095 8.25765C17.2111 8.21812 17.1059 8.19853 16.9999 8.20003H0.99987ZM7.39987 12.2C7.29386 12.1985 7.18861 12.2181 7.09023 12.2576C6.99186 12.2972 6.90232 12.3559 6.82683 12.4303C6.75133 12.5047 6.69138 12.5934 6.65047 12.6912C6.60955 12.789 6.58848 12.894 6.58848 13C6.58848 13.1061 6.60955 13.211 6.65047 13.3088C6.69138 13.4066 6.75133 13.4953 6.82683 13.5698C6.90232 13.6442 6.99186 13.7029 7.09023 13.7424C7.18861 13.7819 7.29386 13.8015 7.39987 13.8H16.9999C17.1059 13.8015 17.2111 13.7819 17.3095 13.7424C17.4079 13.7029 17.4974 13.6442 17.5729 13.5698C17.6484 13.4953 17.7084 13.4066 17.7493 13.3088C17.7902 13.211 17.8113 13.1061 17.8113 13C17.8113 12.894 17.7902 12.789 17.7493 12.6912C17.7084 12.5934 17.6484 12.5047 17.5729 12.4303C17.4974 12.3559 17.4079 12.2972 17.3095 12.2576C17.2111 12.2181 17.1059 12.1985 16.9999 12.2H7.39987ZM0.99987 16.2C0.893861 16.1985 0.788611 16.2181 0.690236 16.2576C0.591861 16.2972 0.502325 16.3559 0.426829 16.4303C0.351333 16.5047 0.291384 16.5934 0.250466 16.6912C0.209548 16.789 0.188477 16.894 0.188477 17C0.188477 17.1061 0.209548 17.211 0.250466 17.3088C0.291384 17.4066 0.351333 17.4953 0.426829 17.5698C0.502325 17.6442 0.591861 17.7029 0.690236 17.7424C0.788611 17.7819 0.893861 17.8015 0.99987 17.8H16.9999C17.1059 17.8015 17.2111 17.7819 17.3095 17.7424C17.4079 17.7029 17.4974 17.6442 17.5729 17.5698C17.6484 17.4953 17.7084 17.4066 17.7493 17.3088C17.7902 17.211 17.8113 17.1061 17.8113 17C17.8113 16.894 17.7902 16.789 17.7493 16.6912C17.7084 16.5934 17.6484 16.5047 17.5729 16.4303C17.4974 16.3559 17.4079 16.2972 17.3095 16.2576C17.2111 16.2181 17.1059 16.1985 16.9999 16.2H0.99987Z" fill="#7C818D"/>
</svg>
