<svg width="25" height="24" viewBox="0 0 25 24" fill="none" xmlns="http://www.w3.org/2000/svg">
<path d="M11.75 1.5C6.37695 1.5 2 5.87695 2 11.25C2 16.623 6.37695 21 11.75 21C17.123 21 21.5 16.623 21.5 11.25C21.5 5.87695 17.123 1.5 11.75 1.5ZM11.75 3C16.3145 3 20 6.68555 20 11.25C20 15.8145 16.3145 19.5 11.75 19.5C7.18555 19.5 3.5 15.8145 3.5 11.25C3.5 6.68555 7.18555 3 11.75 3ZM15.7168 7.72266L10.25 13.1895L7.77734 10.7227L6.72266 11.7773L10.25 15.3105L16.7832 8.77734L15.7168 7.72266Z" fill="#FF4F00"/>
</svg>
