<svg width="22" height="21" viewBox="0 0 22 21" fill="none" xmlns="http://www.w3.org/2000/svg">
<path d="M2.75022 0.875C1.5139 0.875 0.500244 1.88866 0.500244 3.12497V15.1248C0.500244 16.3611 1.5139 17.3748 2.75022 17.3748H5.00019V18.1248C5.00019 19.3611 6.01385 20.3748 7.25016 20.3748H19.25C20.4863 20.3748 21.5 19.3611 21.5 18.1248V6.12494C21.5 4.88862 20.4863 3.87496 19.25 3.87496H17V3.12497C17 1.88866 15.9864 0.875 14.7501 0.875H2.75022ZM2.75022 2.37498H14.7501C15.1719 2.37498 15.5001 2.7031 15.5001 3.12497V15.1248C15.5001 15.5467 15.1719 15.8748 14.7501 15.8748H2.75022C2.32835 15.8748 2.00023 15.5467 2.00023 15.1248V3.12497C2.00023 2.7031 2.32835 2.37498 2.75022 2.37498ZM17 5.37494H19.25C19.6719 5.37494 20 5.70306 20 6.12494V18.1248C20 18.5467 19.6719 18.8748 19.25 18.8748H7.25016C6.82829 18.8748 6.50017 18.5467 6.50017 18.1248V17.3748H14.7501C15.9864 17.3748 17 16.3611 17 15.1248V5.37494Z" fill="#FF4F00"/>
</svg>
