<svg width="24" height="25" viewBox="0 0 24 25" fill="none" xmlns="http://www.w3.org/2000/svg">
<path d="M18 3.50586C17.2324 3.50586 16.459 3.79297 15.8789 4.37891H15.873L4.59375 15.8516L2.56641 21.9395L8.64844 19.9062L8.77734 19.7832L20.1211 8.62109C21.2871 7.45508 21.2871 5.54492 20.1211 4.37891C19.541 3.79883 18.7676 3.50586 18 3.50586ZM18 5C18.3809 5 18.7617 5.14063 19.0605 5.43945C19.6523 6.03125 19.6523 6.96875 19.0605 7.56055L17.877 8.72656C17.7129 8.32227 17.4492 7.88867 17.0332 7.47266C16.6113 7.05078 16.1777 6.79297 15.7734 6.62891L16.9453 5.43359C17.2383 5.14648 17.6191 4.99414 18 5ZM14.7832 7.89453C15.0586 7.91797 15.4629 8.02344 15.9668 8.52734C16.4766 9.03711 16.582 9.44141 16.6113 9.7168C16.6289 9.92773 16.5996 9.95703 16.5879 9.99219L8.83594 17.6152C8.67187 17.2461 8.41406 16.8535 8.02734 16.4668C7.64648 16.0859 7.25391 15.8281 6.87891 15.6641L14.5078 7.91797C14.543 7.90039 14.5723 7.87695 14.7832 7.89453ZM5.84766 16.9062C6.08203 16.9238 6.45703 17.0176 6.97266 17.5332C7.48242 18.043 7.57617 18.418 7.59375 18.6465C7.59375 18.6758 7.58789 18.6582 7.59375 18.6816L6.16406 19.1562C6.04687 19.0098 5.92383 18.8633 5.77734 18.7168C5.63672 18.5762 5.49023 18.4531 5.34375 18.3418L5.82422 16.9062C5.8418 16.9121 5.82422 16.9062 5.84766 16.9062Z" fill="#FF4F00"/>
</svg>
