<svg width="20" height="20" viewBox="0 0 20 20" fill="none" xmlns="http://www.w3.org/2000/svg">
<path d="M10 0.25C4.62109 0.25 0.25 4.62109 0.25 10C0.25 15.3789 4.62109 19.75 10 19.75C11.8281 19.75 13.5449 19.2461 15.0098 18.3672L14.2363 17.0781C13 17.8223 11.5527 18.25 10 18.25C5.43555 18.25 1.75 14.5645 1.75 10C1.75 5.43555 5.43555 1.75 10 1.75C14.5645 1.75 18.25 5.43555 18.25 10V11.6523C18.25 12.8125 17.3125 13.75 16.1582 13.75H15.8477C14.6934 13.75 13.75 12.8125 13.75 11.6523V8.34766C13.75 6.37305 12.127 4.75 10.1523 4.75H9.84766C7.87305 4.75 6.25 6.37305 6.25 8.34766V11.6523C6.25 13.627 7.87305 15.25 9.84766 15.25H10.1523C11.3125 15.25 12.3438 14.6816 13 13.8203C13.6621 14.6816 14.6875 15.25 15.8477 15.25H16.1582C18.127 15.25 19.75 13.6328 19.75 11.6523V10C19.75 4.62109 15.3789 0.25 10 0.25ZM9.84766 6.25H10.1523C11.3066 6.25 12.25 7.1875 12.25 8.34766V11.6523C12.25 12.8125 11.3066 13.75 10.1523 13.75H9.84766C8.6875 13.75 7.75 12.8125 7.75 11.6523V8.34766C7.75 7.1875 8.6875 6.25 9.84766 6.25Z" fill="#7C818D"/>
</svg>
