<svg width="22" height="23" viewBox="0 0 22 23" fill="none" xmlns="http://www.w3.org/2000/svg">
<path d="M8.5625 0.125C5.87744 0.125 3.6875 2.31494 3.6875 5C3.6875 7.68506 5.87744 9.875 8.5625 9.875C11.2476 9.875 13.4375 7.68506 13.4375 5C13.4375 2.31494 11.2476 0.125 8.5625 0.125ZM8.5625 9.875C4.08106 9.875 0.4375 13.5186 0.4375 18H2.0625C2.0625 14.4136 4.97607 11.5 8.5625 11.5C9.35596 11.5 10.1113 11.665 10.8159 11.9253C11.2603 11.4937 11.7681 11.1445 12.314 10.8398C11.1841 10.2432 9.9209 9.875 8.5625 9.875ZM8.5625 1.75C10.3652 1.75 11.8125 3.19727 11.8125 5C11.8125 6.80273 10.3652 8.25 8.5625 8.25C6.75977 8.25 5.3125 6.80273 5.3125 5C5.3125 3.19727 6.75977 1.75 8.5625 1.75ZM15.0625 11.5V13.2139C14.5483 13.3218 14.0723 13.5312 13.647 13.8105L12.4282 12.5918L11.2793 13.7407L12.498 14.9595C12.2124 15.3848 12.0029 15.8608 11.895 16.375H10.1875V18H11.895C12.0029 18.5205 12.2188 18.9902 12.498 19.4155L11.2793 20.6343L12.4282 21.7832L13.647 20.5645C14.0723 20.8438 14.5483 21.0532 15.0625 21.1611V22.875H16.6875V21.1675C17.208 21.0596 17.6841 20.8564 18.1094 20.5708L19.3218 21.7832L20.4707 20.6343L19.2583 19.4219C19.5439 18.9966 19.7471 18.5142 19.855 18H21.5625V16.375H19.855C19.7471 15.8545 19.5439 15.3784 19.2583 14.9531L20.4707 13.7407L19.3218 12.5918L18.1094 13.8042C17.6841 13.5186 17.2017 13.3154 16.6875 13.2075V11.5H15.0625ZM15.875 14.75C17.2334 14.75 18.3125 15.8291 18.3125 17.1875C18.3125 18.5459 17.2334 19.625 15.875 19.625C14.5166 19.625 13.4375 18.5459 13.4375 17.1875C13.4375 15.8291 14.5166 14.75 15.875 14.75Z" fill="black" fill-opacity="0.8"/>
</svg>
