<svg width="15" height="19" viewBox="0 0 15 19" fill="none" xmlns="http://www.w3.org/2000/svg">
<path d="M2.25 0.25C1.01367 0.25 0 1.26367 0 2.5V16C0 17.2363 1.01367 18.25 2.25 18.25H12.75C13.9863 18.25 15 17.2363 15 16V2.5C15 1.26367 13.9863 0.25 12.75 0.25H2.25ZM2.25 1.75H12.75C13.1719 1.75 13.5 2.07812 13.5 2.5V16C13.5 16.4219 13.1719 16.75 12.75 16.75H2.25C1.82812 16.75 1.5 16.4219 1.5 16V2.5C1.5 2.07812 1.82812 1.75 2.25 1.75ZM3 3.25V4.75H12V3.25H3ZM3 6.25V7.75H12V6.25H3ZM3.75 9.25C3.33398 9.25 3 9.58398 3 10V14.5C3 14.916 3.33398 15.25 3.75 15.25H11.25C11.666 15.25 12 14.916 12 14.5V10C12 9.58398 11.666 9.25 11.25 9.25H3.75ZM4.5 10.75H10.5V13.75H4.5V10.75Z" fill="#FF4F00"/>
</svg>
