<svg width="23" height="22" viewBox="0 0 23 22" fill="none" xmlns="http://www.w3.org/2000/svg">
<path d="M10.4999 0.40155C7.1063 0.40155 5.6999 2.57835 5.6999 5.20155C5.6999 6.08475 6.12178 6.97186 6.12178 6.97186C5.95218 7.06946 5.67325 7.37928 5.74365 7.92968C5.87485 8.95608 6.31983 9.21745 6.60303 9.23905C6.71103 10.1967 7.7399 11.4216 8.0999 11.6V13.2C7.2999 15.6 0.899902 14 0.899902 19.6H10.4577C9.97692 18.6352 9.6999 17.5512 9.6999 16.4C9.6999 13.3488 11.6012 10.7464 14.2812 9.69843C14.3364 9.54163 14.38 9.38705 14.3968 9.23905C14.68 9.21745 15.125 8.95608 15.2562 7.92968C15.3266 7.37848 15.0476 7.06946 14.878 6.97186C14.878 6.97186 15.2999 6.17035 15.2999 5.20155C15.2999 3.25915 14.5375 1.60155 12.8999 1.60155C12.8999 1.60155 12.3311 0.40155 10.4999 0.40155ZM16.8999 10.8C13.8071 10.8 11.2999 13.3072 11.2999 16.4C11.2999 19.4928 13.8071 22 16.8999 22C19.9927 22 22.4999 19.4928 22.4999 16.4C22.4999 13.3072 19.9927 10.8 16.8999 10.8ZM19.2999 14C19.5045 14 19.7091 14.078 19.8655 14.2344C20.1783 14.5472 20.1783 15.0528 19.8655 15.3656L16.6655 18.5656C16.5095 18.7216 16.3047 18.8 16.0999 18.8C15.8951 18.8 15.6903 18.7216 15.5343 18.5656L13.9343 16.9656C13.6215 16.6528 13.6215 16.1472 13.9343 15.8344C14.2471 15.5216 14.7527 15.5216 15.0655 15.8344L16.0999 16.8687L18.7343 14.2344C18.8907 14.078 19.0953 14 19.2999 14Z" fill="#7C818D"/>
</svg>
