<svg width="24" height="25" viewBox="0 0 24 25" fill="none" xmlns="http://www.w3.org/2000/svg">
<path d="M17.0686 2C16.0257 2 15.0413 2.41016 14.3089 3.14844L11.596 5.85547C10.6233 6.82812 10.2776 8.19336 10.5589 9.45898L12.0589 7.96484C12.1643 7.57812 12.3577 7.21484 12.6565 6.91602L15.3694 4.20312C15.8264 3.75195 16.43 3.5 17.0686 3.5C17.7132 3.5 18.3167 3.75195 18.7971 4.23242C19.2542 4.68945 19.5061 5.29297 19.5061 5.9375C19.5061 6.57617 19.2542 7.18555 18.7971 7.63672L16.0901 10.3496C15.803 10.6367 15.4397 10.8301 15.0589 10.9355L13.5413 12.4531C13.8167 12.5176 14.0979 12.5527 14.3909 12.5527C15.4339 12.5527 16.4124 12.1484 17.1507 11.4102L19.8577 8.70312C21.3811 7.17383 21.387 4.69531 19.8343 3.14844C19.096 2.41016 18.1175 2 17.0686 2ZM14.2386 7.99414C14.0452 8 13.8636 8.08203 13.7229 8.22266L7.72293 14.2227C7.42996 14.5098 7.42996 14.9902 7.72293 15.2832C8.0159 15.5762 8.49051 15.5762 8.78933 15.2832L14.7893 9.2832C15.012 9.06641 15.0764 8.73828 14.9534 8.45117C14.8362 8.16406 14.5491 7.98242 14.2386 7.99414ZM8.12137 10.9473C7.0784 10.9473 6.09988 11.3516 5.3616 12.0898L2.64871 14.8027C1.12527 16.3262 1.12527 18.8047 2.678 20.3574C3.43972 21.1191 4.44168 21.5 5.43777 21.5C6.43972 21.5 7.44168 21.1191 8.2034 20.3574L10.9104 17.6504C11.8889 16.6719 12.2346 15.3066 11.9534 14.0469L10.4534 15.541C10.3479 15.9219 10.1546 16.2852 9.85574 16.584L7.14285 19.2969C6.20535 20.2344 4.67019 20.2344 3.70925 19.2676C3.25222 18.8105 3.00613 18.207 3.00613 17.5625C3.00613 16.9238 3.25222 16.3203 3.70925 15.8633L6.42215 13.1504C6.71512 12.8574 7.0784 12.6582 7.46512 12.5469L8.97098 11.0469C8.69558 10.9883 8.41433 10.9473 8.12137 10.9473Z" fill="#FF4F00"/>
</svg>
