<svg width="22" height="22" viewBox="0 0 22 22" fill="none" xmlns="http://www.w3.org/2000/svg">
<path d="M9.9999 0.401611C6.6063 0.401611 5.1999 2.57841 5.1999 5.20161C5.1999 6.08481 5.62178 6.97192 5.62178 6.97192C5.45218 7.06952 5.17325 7.37934 5.24365 7.92974C5.37485 8.95614 5.81983 9.21751 6.10303 9.23911C6.21103 10.1967 7.2399 11.4216 7.5999 11.6V13.2C6.7999 15.6 0.399902 14 0.399902 19.6H9.95772C9.47692 18.6352 9.1999 17.5512 9.1999 16.4C9.1999 13.3488 11.1012 10.7465 13.7812 9.69849C13.8364 9.54169 13.88 9.38711 13.8968 9.23911C14.18 9.21751 14.625 8.95614 14.7562 7.92974C14.8266 7.37854 14.5476 7.06952 14.378 6.97192C14.378 6.97192 14.7999 6.17041 14.7999 5.20161C14.7999 3.25921 14.0375 1.60161 12.3999 1.60161C12.3999 1.60161 11.8311 0.401611 9.9999 0.401611ZM16.3999 10.8C13.3071 10.8 10.7999 13.3072 10.7999 16.4C10.7999 19.4928 13.3071 22 16.3999 22C19.4927 22 21.9999 19.4928 21.9999 16.4C21.9999 13.3072 19.4927 10.8 16.3999 10.8ZM18.7999 14C19.0045 14 19.2091 14.078 19.3655 14.2344C19.6783 14.5472 19.6783 15.0529 19.3655 15.3657L16.1655 18.5657C16.0095 18.7217 15.8047 18.8 15.5999 18.8C15.3951 18.8 15.1903 18.7217 15.0343 18.5657L13.4343 16.9657C13.1215 16.6529 13.1215 16.1472 13.4343 15.8344C13.7471 15.5216 14.2527 15.5216 14.5655 15.8344L15.5999 16.8688L18.2343 14.2344C18.3907 14.078 18.5953 14 18.7999 14Z" fill="#7C818D"/>
</svg>
