<svg width="20" height="22" viewBox="0 0 20 22" fill="none" xmlns="http://www.w3.org/2000/svg">
<path d="M8.00018 0.500051C5.5217 0.500051 3.50024 2.52151 3.50024 4.99999C3.50024 7.47848 5.5217 9.49994 8.00018 9.49994C8.46893 9.49994 8.90837 9.40619 9.3361 9.27728C9.19548 9.37103 9.07829 9.48236 8.94939 9.59369C8.63299 9.55267 8.32244 9.49994 8.00018 9.49994C3.86937 9.49994 0.500275 12.869 0.500275 16.9998H2.00026C2.00026 13.8065 4.47874 11.2343 7.62519 11.0351C6.91621 12.1073 6.5002 13.3788 6.5002 14.7499C6.5002 18.4705 9.52946 21.4998 13.2501 21.4998C16.9708 21.4998 20 18.4705 20 14.7499C20 11.0292 16.9708 7.99996 13.2501 7.99996C12.3947 7.99996 11.5861 8.17574 10.8302 8.4687C11.838 7.63668 12.5001 6.40037 12.5001 4.99999C12.5001 2.52151 10.4787 0.500051 8.00018 0.500051ZM8.00018 2.00003C9.66422 2.00003 11.0001 3.33595 11.0001 4.99999C11.0001 6.66404 9.66422 7.99996 8.00018 7.99996C6.33614 7.99996 5.00022 6.66404 5.00022 4.99999C5.00022 3.33595 6.33614 2.00003 8.00018 2.00003ZM13.2501 9.49994C16.1563 9.49994 18.5001 11.8437 18.5001 14.7499C18.5001 17.6561 16.1563 19.9998 13.2501 19.9998C10.3439 19.9998 8.00018 17.6561 8.00018 14.7499C8.00018 11.8437 10.3439 9.49994 13.2501 9.49994ZM12.5001 10.9999V13.9999H9.50016V15.4999H12.5001V18.4998H14.0001V15.4999H17.0001V13.9999H14.0001V10.9999H12.5001Z" fill="#FF4F00"/>
</svg>
