<svg width="20" height="20" viewBox="0 0 20 20" fill="none" xmlns="http://www.w3.org/2000/svg">
<path d="M10.2502 9.91821e-05C9.59977 9.91821e-05 8.96697 0.0704108 8.35174 0.187597L8.64471 1.66414C9.16032 1.55867 9.69938 1.50008 10.2502 1.50008C10.5373 1.50008 10.8185 1.51766 11.0939 1.54695C11.3517 1.57039 11.6095 1.61141 11.8556 1.66414V1.65828C15.6524 2.40241 18.5001 5.73636 18.5001 9.74998C18.5001 13.7636 15.6524 17.0975 11.8556 17.8417V17.8358C11.6037 17.8885 11.3458 17.9296 11.0822 17.953C10.8068 17.9823 10.5314 17.9999 10.2502 17.9999C9.69938 17.9999 9.16618 17.9296 8.64471 17.83L8.35174 19.2948C8.96697 19.4178 9.59977 19.4999 10.2502 19.4999C15.629 19.4999 20 15.1288 20 9.74998C20 4.37114 15.629 9.91821e-05 10.2502 9.91821e-05ZM4.83616 1.64656C3.77562 2.3614 2.87329 3.28131 2.15846 4.34184L3.40649 5.17386C4.00414 4.27739 4.77171 3.4981 5.66818 2.8946L4.83616 1.64656ZM14.17 6.26955L9.99234 11.2851L7.57831 9.01171L6.54707 10.1133L10.133 13.4648L15.3302 7.23048L14.17 6.26955ZM0.705351 7.85156C0.582306 8.46679 0.500275 9.0996 0.500275 9.74998C0.500275 10.4004 0.570586 11.0332 0.687772 11.6484L2.16432 11.3554C2.05885 10.8398 2.00026 10.3008 2.00026 9.74998C2.00026 9.1992 2.07057 8.66601 2.17604 8.14453L0.705351 7.85156ZM3.39477 14.332L2.14674 15.164C2.86157 16.2245 3.78148 17.1268 4.84202 17.8417L5.67404 16.5936C4.77757 15.996 3.99828 15.2284 3.39477 14.332Z" fill="#FF4F00"/>
</svg>
