<svg width="16" height="19" viewBox="0 0 16 19" fill="none" xmlns="http://www.w3.org/2000/svg">
<path d="M2.75031 0.500153C1.51398 0.500153 0.500305 1.51382 0.500305 2.75015V16.2502C0.500305 17.4865 1.51398 18.5002 2.75031 18.5002H13.2503C14.4866 18.5002 15.5003 17.4865 15.5003 16.2502V2.75015C15.5003 1.51382 14.4866 0.500153 13.2503 0.500153H2.75031ZM2.75031 2.00015H13.2503C13.6722 2.00015 14.0003 2.32828 14.0003 2.75015V16.2502C14.0003 16.672 13.6722 17.0002 13.2503 17.0002H2.75031C2.32843 17.0002 2.00031 16.672 2.00031 16.2502V2.75015C2.00031 2.32828 2.32843 2.00015 2.75031 2.00015ZM3.50031 3.50015V5.00015H12.5003V3.50015H3.50031ZM3.50031 6.50015V8.00015H12.5003V6.50015H3.50031ZM4.25031 9.50015C3.83429 9.50015 3.50031 9.83414 3.50031 10.2502V14.7502C3.50031 15.1662 3.83429 15.5002 4.25031 15.5002H11.7503C12.1663 15.5002 12.5003 15.1662 12.5003 14.7502V10.2502C12.5003 9.83414 12.1663 9.50015 11.7503 9.50015H4.25031ZM5.00031 11.0002H11.0003V14.0002H5.00031V11.0002Z" fill="#FF4F00"/>
</svg>
