<svg width="37" height="40" viewBox="0 0 37 40" fill="none" xmlns="http://www.w3.org/2000/svg">
<path d="M5.625 0.249939C2.95177 0.249939 0.75 2.45171 0.75 5.12494V19.7499H4V5.12494C4 4.21017 4.71023 3.49994 5.625 3.49994H20.25V13.2499H30V19.7499H33.25V10.9521L22.5479 0.249939H5.625ZM23.5 5.79779L27.7021 9.99994H23.5V5.79779ZM0.75 22.9999V39.2499H4V32.7499H5.625C8.29823 32.7499 10.5 30.5482 10.5 27.8749C10.5 25.2017 8.29823 22.9999 5.625 22.9999H0.75ZM13.75 22.9999V39.2499H18.625C21.2982 39.2499 23.5 37.0482 23.5 34.3749V27.8749C23.5 25.2017 21.2982 22.9999 18.625 22.9999H13.75ZM26.75 22.9999V39.2499H30V32.7499H33.25V29.4999H30V26.2499H36.5V22.9999H26.75ZM4 26.2499H5.625C6.53977 26.2499 7.25 26.9602 7.25 27.8749C7.25 28.7897 6.53977 29.4999 5.625 29.4999H4V26.2499ZM17 26.2499H18.625C19.5398 26.2499 20.25 26.9602 20.25 27.8749V34.3749C20.25 35.2897 19.5398 35.9999 18.625 35.9999H17V26.2499Z" fill="#FF4F00"/>
</svg>

