<svg width="16" height="19" viewBox="0 0 16 19" fill="none" xmlns="http://www.w3.org/2000/svg">
<path d="M5.96899 0.500122C4.73267 0.500122 3.71899 1.51379 3.71899 2.75012V3.50012H5.21899V2.75012C5.21899 2.32825 5.54712 2.00012 5.96899 2.00012H13.469C13.8909 2.00012 14.219 2.32825 14.219 2.75012V16.2501C14.219 16.672 13.8909 17.0001 13.469 17.0001H5.96899C5.54712 17.0001 5.21899 16.672 5.21899 16.2501V14.0001H3.71899V16.2501C3.71899 17.4865 4.73267 18.5001 5.96899 18.5001H13.469C14.7053 18.5001 15.719 17.4865 15.719 16.2501V2.75012C15.719 1.51379 14.7053 0.500122 13.469 0.500122H5.96899ZM1.62134 5.03528L0.56665 6.08997L3.22095 8.75012L0.56665 11.4103L1.62134 12.465L4.37524 9.71692L7.12915 12.465L8.18384 11.4103L5.52954 8.75012L8.18384 6.08997L7.12915 5.03528L4.37524 7.78333L1.62134 5.03528ZM8.21899 14.0001V15.5001H11.219V14.0001H8.21899Z" fill="#FF4F00"/>
</svg>
