<svg width="19" height="19" viewBox="0 0 19 19" fill="none" xmlns="http://www.w3.org/2000/svg">
<path d="M11.7386 0.500088C11.5417 0.503184 11.354 0.583564 11.2158 0.72388C11.0777 0.864196 11.0003 1.0532 11.0003 1.25009V3.93954L8.43976 6.50009H4.25031C4.102 6.50015 3.95704 6.54417 3.83375 6.62658C3.71046 6.709 3.61436 6.82612 3.55761 6.96314C3.50086 7.10015 3.486 7.25092 3.51491 7.39638C3.54382 7.54183 3.6152 7.67546 3.72003 7.78036L6.93976 11.0001L0.532532 17.4073L1.59308 18.4679L8.00031 12.0606L11.22 15.2804C11.3249 15.3852 11.4586 15.4566 11.604 15.4855C11.7495 15.5144 11.9002 15.4995 12.0373 15.4428C12.1743 15.386 12.2914 15.2899 12.3738 15.1666C12.4562 15.0433 12.5002 14.8984 12.5003 14.7501V10.7364L15.0755 8.00009H17.7503C17.8986 8.00003 18.0436 7.95601 18.1669 7.87359C18.2902 7.79117 18.3862 7.67406 18.443 7.53704C18.4997 7.40002 18.5146 7.24926 18.4857 7.1038C18.4568 6.95834 18.3854 6.82472 18.2806 6.71981L12.2806 0.719815C12.2096 0.648759 12.125 0.592696 12.0319 0.554951C11.9388 0.517206 11.839 0.498549 11.7386 0.500088ZM12.5003 3.06063L15.9398 6.50009H14.7503C14.6481 6.50043 14.547 6.52166 14.4533 6.56246C14.3596 6.60327 14.2753 6.6628 14.2054 6.73739L11.2054 9.92489C11.0743 10.0635 11.001 10.2468 11.0003 10.4376V12.9395L6.06085 8.00009H8.75031C8.9492 8.00005 9.13995 7.92101 9.28058 7.78036L12.2806 4.78036C12.4212 4.63973 12.5003 4.44899 12.5003 4.25009V3.06063Z" fill="#FF4F00"/>
</svg>
