<svg width="18" height="19" viewBox="0 0 18 19" fill="none" xmlns="http://www.w3.org/2000/svg">
<path d="M11.2385 0.375088C11.0417 0.378184 10.8539 0.458564 10.7158 0.59888C10.5777 0.739196 10.5002 0.928195 10.5002 1.12509V3.81454L7.9397 6.37509H3.75024C3.60194 6.37515 3.45698 6.41917 3.33369 6.50158C3.2104 6.584 3.1143 6.70112 3.05755 6.83814C3.0008 6.97515 2.98594 7.12592 3.01485 7.27138C3.04376 7.41683 3.11514 7.55046 3.21997 7.65536L6.4397 10.8751L0.0324707 17.2823L1.09302 18.3429L7.50024 11.9356L10.72 15.1554C10.8249 15.2602 10.9585 15.3316 11.104 15.3605C11.2494 15.3894 11.4002 15.3745 11.5372 15.3178C11.6742 15.261 11.7913 15.1649 11.8737 15.0416C11.9562 14.9183 12.0002 14.7734 12.0002 14.6251V10.6114L14.5754 7.87509H17.2502C17.3985 7.87503 17.5435 7.83101 17.6668 7.74859C17.7901 7.66617 17.8862 7.54906 17.9429 7.41204C17.9997 7.27502 18.0145 7.12426 17.9856 6.9788C17.9567 6.83334 17.8853 6.69972 17.7805 6.59481L11.7805 0.594815C11.7095 0.523759 11.6249 0.467696 11.5318 0.429951C11.4387 0.392206 11.339 0.373549 11.2385 0.375088ZM12.0002 2.93563L15.4397 6.37509H14.2502C14.148 6.37543 14.047 6.39666 13.9533 6.43746C13.8596 6.47827 13.7752 6.5378 13.7053 6.61239L10.7053 9.79989C10.5743 9.9385 10.5009 10.1218 10.5002 10.3126V12.8145L5.56079 7.87509H8.25024C8.44914 7.87505 8.63988 7.79601 8.78052 7.65536L11.7805 4.65536C11.9212 4.51473 12.0002 4.32399 12.0002 4.12509V2.93563Z" fill="#FF4F00"/>
</svg>
