<svg width="21" height="18" viewBox="0 0 21 18" fill="none" xmlns="http://www.w3.org/2000/svg">
<path d="M2.25 0.75C0.972657 0.75 0 1.88086 0 3.16406V14.8359C0 16.1191 0.972657 17.25 2.25 17.25H18.75C20.0273 17.25 21 16.1191 21 14.8359V3.16406C21 1.88086 20.0273 0.75 18.75 0.75H2.25ZM2.25 2.25H18.75C19.125 2.25 19.5 2.61328 19.5 3.16406V14.8359C19.5 15.3867 19.125 15.75 18.75 15.75H2.25C1.875 15.75 1.5 15.3867 1.5 14.8359V3.16406C1.5 2.61328 1.875 2.25 2.25 2.25ZM10.5 5.25C6.33398 5.25 4.74609 8.70117 4.74609 8.70117L4.61719 9L4.74609 9.29883C4.74609 9.29883 6.33398 12.75 10.5 12.75C14.666 12.75 16.248 9.29883 16.248 9.29883L16.3828 9L16.248 8.70117C16.248 8.70117 14.666 5.25 10.5 5.25ZM10.6875 6.76172C13.5 6.84375 14.4375 8.54297 14.6543 9C14.4316 9.46289 13.4707 11.25 10.5 11.25C7.5293 11.25 6.56836 9.46289 6.33984 9C6.5625 8.54883 7.48242 6.87305 10.2422 6.77344C9.52734 6.89648 9 7.51758 9 8.25C9 9.07617 9.67383 9.75 10.5 9.75C11.3262 9.75 12 9.07617 12 8.25C12 7.49414 11.4375 6.86133 10.6875 6.76172Z" fill="#FF4F00"/>
</svg>
