<svg width="10" height="14" viewBox="0 0 10 14" fill="none" xmlns="http://www.w3.org/2000/svg">
<path d="M0.711914 4.82499C0.711914 2.54571 2.53678 0.670353 4.77278 0.54052C5.09015 0.526095 5.42194 0.547732 5.75374 0.598223C7.83827 0.958869 9.34577 2.85586 9.28085 4.95482C9.23036 6.7292 8.04744 8.04916 6.66978 8.64783C6.17209 8.87143 5.86914 9.05175 5.76095 9.16716C5.64554 9.28978 5.58784 9.3547 5.58784 9.77304H3.74134C3.74134 9.04454 3.97936 8.35931 4.41935 7.89769C4.85684 7.43868 5.37278 7.20787 5.91753 6.96418L5.92685 6.96001C6.80682 6.57051 7.40549 5.92135 7.43434 4.89712C7.47041 3.72863 6.57601 2.61784 5.44358 2.42309C3.85674 2.149 2.55842 3.3247 2.55842 4.82499H0.711914Z" fill="#FF4F00"/>
<path d="M3.74134 13.4661V11.6195H5.58784V13.4661H3.74134Z" fill="#FF4F00"/>
</svg>
