<svg width="24" height="24" viewBox="0 0 24 24" fill="none" xmlns="http://www.w3.org/2000/svg">
<path d="M11.2489 0.749023V3.78444C7.29939 4.14775 4.14678 7.30037 3.78346 11.2499H0.748047V12.7501H3.78346C4.14678 16.6996 7.29939 19.8522 11.2489 20.2097V23.251H12.7491V20.2097C16.6986 19.8522 19.8513 16.6996 20.2087 12.7501H23.25V11.2499H20.2087C19.8513 7.30037 16.6986 4.14775 12.7491 3.78444V0.749023H11.2489ZM11.2489 5.32559V6.74954H12.7491V5.32559C15.8783 5.67132 18.3277 8.12075 18.6734 11.2499H17.2495V12.7501H18.6734C18.3277 15.8792 15.8783 18.3287 12.7491 18.6744V17.2504H11.2489V18.6744C8.11977 18.3287 5.67034 15.8792 5.32461 12.7501H6.74856V11.2499H5.32461C5.67034 8.12075 8.11977 5.67132 11.2489 5.32559Z" fill="#7C818D"/>
</svg>
