<svg width="20" height="20" viewBox="0 0 20 20" fill="none" xmlns="http://www.w3.org/2000/svg">
<path d="M3.83836 0.282715L1.47703 2.64404C0.182113 3.93896 -0.0991371 5.95459 0.826643 7.53662C1.85789 9.30615 2.70164 10.6128 6.23485 14.1401C9.76219 17.6733 10.7231 18.1538 12.4634 19.1733C14.0513 20.0991 16.061 19.8179 17.3501 18.5229L19.7173 16.1616L15.147 11.5972L13.2895 13.4546C13.0669 13.355 12.7329 13.1792 12.3462 12.9331C11.5493 12.4233 10.5298 11.644 9.63328 10.7417C8.73094 9.84521 7.85203 8.72607 7.24266 7.82373C6.94383 7.37842 6.7036 6.97412 6.57469 6.71045C6.56883 6.69873 6.56883 6.69873 6.56297 6.68701L8.40282 4.84717L3.83836 0.282715ZM3.83836 2.40381L6.28172 4.84717L5.20946 5.92529C4.9868 6.14795 4.96336 6.39404 4.96922 6.53467C4.96922 6.66943 4.99266 6.76318 5.0161 6.85107C5.06883 7.03272 5.13914 7.19092 5.22703 7.37842C5.40868 7.7417 5.67235 8.17529 6.00047 8.66748C6.65672 9.64014 7.5825 10.8179 8.56688 11.8081C9.55711 12.7925 10.647 13.6245 11.5434 14.1929C11.9888 14.48 12.3813 14.6968 12.7153 14.8433C12.8852 14.9194 13.0376 14.978 13.2192 15.0132C13.3071 15.0308 13.4067 15.0425 13.5415 15.0308C13.6763 15.0249 13.8872 14.978 14.0747 14.7905L15.147 13.7183L17.5962 16.1616L16.2895 17.4683C15.4751 18.2827 14.2153 18.4585 13.2192 17.8784C11.4497 16.8413 10.7759 16.5659 7.28953 13.0854C3.80907 9.59912 3.1411 8.52686 2.12157 6.78076C1.54149 5.78467 1.71727 4.5249 2.53172 3.71045L3.83836 2.40381Z" fill="#7C818D"/>
</svg>
