<svg width="16" height="18" viewBox="0 0 16 18" fill="none" xmlns="http://www.w3.org/2000/svg">
<path d="M2.75 0C1.51367 0 0.5 1.01367 0.5 2.25V15.75C0.5 16.9863 1.51367 18 2.75 18H13.25C14.4863 18 15.5 16.9863 15.5 15.75V2.25C15.5 1.01367 14.4863 0 13.25 0H2.75ZM2.75 1.5H13.25C13.6719 1.5 14 1.82812 14 2.25V15.75C14 16.1719 13.6719 16.5 13.25 16.5H2.75C2.32812 16.5 2 16.1719 2 15.75V2.25C2 1.82812 2.32812 1.5 2.75 1.5ZM3.5 3V4.5H12.5V3H3.5ZM3.5 6V7.5H12.5V6H3.5ZM4.25 9C3.83398 9 3.5 9.33398 3.5 9.75V14.25C3.5 14.666 3.83398 15 4.25 15H11.75C12.166 15 12.5 14.666 12.5 14.25V9.75C12.5 9.33398 12.166 9 11.75 9H4.25ZM5 10.5H11V13.5H5V10.5Z" fill="#7C818D"/>
</svg>
