<svg width="19" height="18" viewBox="0 0 19 18" fill="none" xmlns="http://www.w3.org/2000/svg">
<path d="M1.49987 0.199999C1.39386 0.1985 1.28861 0.218085 1.19024 0.257616C1.09186 0.297147 1.00232 0.355835 0.926829 0.430271C0.851333 0.504706 0.791384 0.593404 0.750466 0.69121C0.709548 0.789016 0.688477 0.893979 0.688477 0.999999C0.688477 1.10602 0.709548 1.21098 0.750466 1.30879C0.791384 1.40659 0.851333 1.49529 0.926829 1.56973C1.00232 1.64416 1.09186 1.70285 1.19024 1.74238C1.28861 1.78191 1.39386 1.8015 1.49987 1.8H17.4999C17.6059 1.8015 17.7111 1.78191 17.8095 1.74238C17.9079 1.70285 17.9974 1.64416 18.0729 1.56973C18.1484 1.49529 18.2084 1.40659 18.2493 1.30879C18.2902 1.21098 18.3113 1.10602 18.3113 0.999999C18.3113 0.893979 18.2902 0.789016 18.2493 0.69121C18.2084 0.593404 18.1484 0.504706 18.0729 0.430271C17.9974 0.355835 17.9079 0.297147 17.8095 0.257616C17.7111 0.218085 17.6059 0.1985 17.4999 0.199999H1.49987ZM7.89987 4.2C7.79386 4.1985 7.68861 4.21808 7.59023 4.25762C7.49186 4.29715 7.40232 4.35584 7.32683 4.43027C7.25133 4.50471 7.19138 4.5934 7.15047 4.69121C7.10955 4.78902 7.08848 4.89398 7.08848 5C7.08848 5.10602 7.10955 5.21098 7.15047 5.30879C7.19138 5.40659 7.25133 5.49529 7.32683 5.56973C7.40232 5.64416 7.49186 5.70285 7.59023 5.74238C7.68861 5.78191 7.79386 5.8015 7.89987 5.8H17.4999C17.6059 5.8015 17.7111 5.78191 17.8095 5.74238C17.9079 5.70285 17.9974 5.64416 18.0729 5.56973C18.1484 5.49529 18.2084 5.40659 18.2493 5.30879C18.2902 5.21098 18.3113 5.10602 18.3113 5C18.3113 4.89398 18.2902 4.78902 18.2493 4.69121C18.2084 4.5934 18.1484 4.50471 18.0729 4.43027C17.9974 4.35584 17.9079 4.29715 17.8095 4.25762C17.7111 4.21808 17.6059 4.1985 17.4999 4.2H7.89987ZM1.49987 8.2C1.39386 8.1985 1.28861 8.21808 1.19024 8.25762C1.09186 8.29715 1.00232 8.35583 0.926829 8.43027C0.851333 8.50471 0.791384 8.5934 0.750466 8.69121C0.709548 8.78902 0.688477 8.89398 0.688477 9C0.688477 9.10602 0.709548 9.21098 0.750466 9.30879C0.791384 9.40659 0.851333 9.49529 0.926829 9.56973C1.00232 9.64416 1.09186 9.70285 1.19024 9.74238C1.28861 9.78191 1.39386 9.8015 1.49987 9.8H17.4999C17.6059 9.8015 17.7111 9.78191 17.8095 9.74238C17.9079 9.70285 17.9974 9.64416 18.0729 9.56973C18.1484 9.49529 18.2084 9.40659 18.2493 9.30879C18.2902 9.21098 18.3113 9.10602 18.3113 9C18.3113 8.89398 18.2902 8.78902 18.2493 8.69121C18.2084 8.5934 18.1484 8.50471 18.0729 8.43027C17.9974 8.35583 17.9079 8.29715 17.8095 8.25762C17.7111 8.21808 17.6059 8.1985 17.4999 8.2H1.49987ZM7.89987 12.2C7.79386 12.1985 7.68861 12.2181 7.59023 12.2576C7.49186 12.2971 7.40232 12.3558 7.32683 12.4303C7.25133 12.5047 7.19138 12.5934 7.15047 12.6912C7.10955 12.789 7.08848 12.894 7.08848 13C7.08848 13.106 7.10955 13.211 7.15047 13.3088C7.19138 13.4066 7.25133 13.4953 7.32683 13.5697C7.40232 13.6442 7.49186 13.7029 7.59023 13.7424C7.68861 13.7819 7.79386 13.8015 7.89987 13.8H17.4999C17.6059 13.8015 17.7111 13.7819 17.8095 13.7424C17.9079 13.7029 17.9974 13.6442 18.0729 13.5697C18.1484 13.4953 18.2084 13.4066 18.2493 13.3088C18.2902 13.211 18.3113 13.106 18.3113 13C18.3113 12.894 18.2902 12.789 18.2493 12.6912C18.2084 12.5934 18.1484 12.5047 18.0729 12.4303C17.9974 12.3558 17.9079 12.2971 17.8095 12.2576C17.7111 12.2181 17.6059 12.1985 17.4999 12.2H7.89987ZM1.49987 16.2C1.39386 16.1985 1.28861 16.2181 1.19024 16.2576C1.09186 16.2971 1.00232 16.3558 0.926829 16.4303C0.851333 16.5047 0.791384 16.5934 0.750466 16.6912C0.709548 16.789 0.688477 16.894 0.688477 17C0.688477 17.106 0.709548 17.211 0.750466 17.3088C0.791384 17.4066 0.851333 17.4953 0.926829 17.5697C1.00232 17.6442 1.09186 17.7029 1.19024 17.7424C1.28861 17.7819 1.39386 17.8015 1.49987 17.8H17.4999C17.6059 17.8015 17.7111 17.7819 17.8095 17.7424C17.9079 17.7029 17.9974 17.6442 18.0729 17.5697C18.1484 17.4953 18.2084 17.4066 18.2493 17.3088C18.2902 17.211 18.3113 17.106 18.3113 17C18.3113 16.894 18.2902 16.789 18.2493 16.6912C18.2084 16.5934 18.1484 16.5047 18.0729 16.4303C17.9974 16.3558 17.9079 16.2971 17.8095 16.2576C17.7111 16.2181 17.6059 16.1985 17.4999 16.2H1.49987Z" fill="#7C818D"/>
</svg>
