<svg width="19" height="19" viewBox="0 0 19 19" fill="none" xmlns="http://www.w3.org/2000/svg">
<path d="M3.24733 0.998779C2.01086 0.998779 0.99707 2.01257 0.99707 3.24904V16.7506C0.99707 17.9871 2.01086 19.0008 3.24733 19.0008H16.7489C17.9853 19.0008 18.9991 17.9871 18.9991 16.7506V3.24904C18.9991 2.01257 17.9853 0.998779 16.7489 0.998779H3.24733ZM3.24733 2.49895H16.7489C17.1708 2.49895 17.499 2.82711 17.499 3.24904V16.7506C17.499 17.1725 17.1708 17.5007 16.7489 17.5007H3.24733C2.8254 17.5007 2.49724 17.1725 2.49724 16.7506V3.24904C2.49724 2.82711 2.8254 2.49895 3.24733 2.49895ZM9.9981 5.49929C8.35143 5.49929 6.99776 6.85297 6.99776 8.49964C6.99776 9.30246 7.32592 10.035 7.8416 10.5741C6.45277 11.3418 5.49759 12.8068 5.49759 14.5003H6.99776C6.99776 12.8361 8.33385 11.5 9.9981 11.5C11.6624 11.5 12.9984 12.8361 12.9984 14.5003H14.4986C14.4986 12.8068 13.5434 11.3418 12.1546 10.5741C12.6703 10.035 12.9984 9.30246 12.9984 8.49964C12.9984 6.85297 11.6448 5.49929 9.9981 5.49929ZM9.9981 6.99947C10.8361 6.99947 11.4983 7.66165 11.4983 8.49964C11.4983 9.33762 10.8361 9.99981 9.9981 9.99981C9.16011 9.99981 8.49793 9.33762 8.49793 8.49964C8.49793 7.66165 9.16011 6.99947 9.9981 6.99947Z" fill="#7C818D"/>
</svg>
