<svg width="17" height="20" viewBox="0 0 17 20" fill="none" xmlns="http://www.w3.org/2000/svg">
<path d="M6.74463 0.500244C5.51416 0.500244 4.50049 1.51392 4.50049 2.74439V3.50024H0.000488281V5.00024H1.50049V17.7502C1.50049 18.9924 2.5083 20.0002 3.75049 20.0002H12.7505C13.9927 20.0002 15.0005 18.9924 15.0005 17.7502V5.00024H16.5005V3.50024H12.0005V2.74439C12.0005 1.51392 10.9868 0.500244 9.75635 0.500244H6.74463ZM6.74463 2.00024H9.75635C10.1782 2.00024 10.5005 2.32251 10.5005 2.74439V3.50024H6.00049V2.74439C6.00049 2.32251 6.32275 2.00024 6.74463 2.00024ZM4.50049 6.50024H6.00049V17.0002H4.50049V6.50024ZM7.50049 6.50024H9.00049V17.0002H7.50049V6.50024ZM10.5005 6.50024H12.0005V17.0002H10.5005V6.50024Z" fill="#EF0E0E"/>
</svg>
