<svg width="26" height="24" viewBox="0 0 26 24" fill="none" xmlns="http://www.w3.org/2000/svg">
<path d="M4 0C4 1.125 3.375 2 2 2V4C2.75781 4 3.42188 3.78906 4 3.45313V10H6V0H4ZM18 0V20.0859L13.4531 15.5469L12.0469 16.9609L19 23.9141L25.9609 16.9609L24.5391 15.5469L20 20.0859V0H18ZM4 14C2.71875 14 1.64844 14.5547 0.984376 15.3281C0.3125 16.1094 0 17.0781 0 18H2C2 17.5469 2.17188 17.0078 2.5 16.6328C2.82031 16.2578 3.25 16 4 16C4.83594 16 6 16.7031 6 18C6 18.0469 5.84375 18.4453 5.36719 18.9062C4.89063 19.3672 4.1875 19.8672 3.47656 20.3125C2.04688 21.1875 0.59375 21.8359 0.59375 21.8359L0 22.0938V24H8V22H4.53906C5.32031 21.5156 6.11719 20.9688 6.75781 20.3438C7.40625 19.7188 8 19 8 18C8 15.5469 5.92188 14 4 14Z" fill="#B0B0B0"/>
</svg>
