<svg width="56" height="58" viewBox="0 0 56 58" fill="none" xmlns="http://www.w3.org/2000/svg">
<g filter="url(#filter0_dd_228_6723)">
<rect x="2" width="52" height="52" rx="12" fill="#F5F5F5"/>
<path d="M20 28C20 29.125 19.375 30 18 30V32C18.7578 32 19.4219 31.7891 20 31.4531V38H22V28H20ZM34 38V17.9141L29.4531 22.4531L28.0469 21.0391L35 14.0859L41.9609 21.0391L40.5391 22.4531L36 17.9141V38H34ZM20 14C18.7188 14 17.6484 14.5547 16.9844 15.3281C16.3125 16.1094 16 17.0781 16 18H18C18 17.5469 18.1719 17.0078 18.5 16.6328C18.8203 16.2578 19.25 16 20 16C20.8359 16 22 16.7031 22 18C22 18.0469 21.8438 18.4453 21.3672 18.9062C20.8906 19.3672 20.1875 19.8672 19.4766 20.3125C18.0469 21.1875 16.5938 21.8359 16.5938 21.8359L16 22.0938V24H24V22H20.5391C21.3203 21.5156 22.1172 20.9688 22.7578 20.3438C23.4062 19.7188 24 19 24 18C24 15.5469 21.9219 14 20 14Z" fill="#B0B0B0"/>
</g>
<defs>
<filter id="filter0_dd_228_6723" x="0" y="0" width="56" height="58" filterUnits="userSpaceOnUse" color-interpolation-filters="sRGB">
<feFlood flood-opacity="0" result="BackgroundImageFix"/>
<feColorMatrix in="SourceAlpha" type="matrix" values="0 0 0 0 0 0 0 0 0 0 0 0 0 0 0 0 0 0 127 0" result="hardAlpha"/>
<feMorphology radius="2" operator="erode" in="SourceAlpha" result="effect1_dropShadow_228_6723"/>
<feOffset dy="4"/>
<feGaussianBlur stdDeviation="2"/>
<feColorMatrix type="matrix" values="0 0 0 0 0.0941176 0 0 0 0 0.152941 0 0 0 0 0.294118 0 0 0 0.08 0"/>
<feBlend mode="normal" in2="BackgroundImageFix" result="effect1_dropShadow_228_6723"/>
<feColorMatrix in="SourceAlpha" type="matrix" values="0 0 0 0 0 0 0 0 0 0 0 0 0 0 0 0 0 0 127 0" result="hardAlpha"/>
<feMorphology radius="2" operator="erode" in="SourceAlpha" result="effect2_dropShadow_228_6723"/>
<feOffset dy="2"/>
<feGaussianBlur stdDeviation="2"/>
<feColorMatrix type="matrix" values="0 0 0 0 0.0941176 0 0 0 0 0.152941 0 0 0 0 0.294118 0 0 0 0.12 0"/>
<feBlend mode="normal" in2="effect1_dropShadow_228_6723" result="effect2_dropShadow_228_6723"/>
<feBlend mode="normal" in="SourceGraphic" in2="effect2_dropShadow_228_6723" result="shape"/>
</filter>
</defs>
</svg>
