<svg width="26" height="24" viewBox="0 0 26 24" fill="none" xmlns="http://www.w3.org/2000/svg">
<path d="M4 14C4 15.125 3.375 16 2 16V18C2.75781 18 3.42188 17.7891 4 17.4531V24H6V14H4ZM18 24V3.91406L13.4531 8.45312L12.0469 7.03906L19 0.0859375L25.9609 7.03906L24.5391 8.45312L20 3.91406V24H18ZM4 0C2.71875 0 1.64844 0.554689 0.984376 1.32813C0.3125 2.10938 0 3.07813 0 4H2C2 3.54688 2.17188 3.00781 2.5 2.63281C2.82031 2.25781 3.25 2 4 2C4.83594 2 6 2.70312 6 4C6 4.04688 5.84375 4.44531 5.36719 4.90625C4.89063 5.36719 4.1875 5.86719 3.47656 6.3125C2.04688 7.1875 0.59375 7.83594 0.59375 7.83594L0 8.09375V10H8V8H4.53906C5.32031 7.51563 6.11719 6.96875 6.75781 6.34375C7.40625 5.71875 8 5 8 4C8 1.54688 5.92188 0 4 0Z" fill="#B0B0B0"/>
</svg>
