<svg width="4" height="21" viewBox="0 0 4 21" fill="none" xmlns="http://www.w3.org/2000/svg">
<path d="M4 2.24805C4 1.14648 3.10156 0.248047 2 0.248047C0.898438 0.248047 -3.9272e-08 1.14648 -8.74228e-08 2.24805C-1.35574e-07 3.34961 0.898438 4.24805 2 4.24805C3.10156 4.24805 4 3.34961 4 2.24805ZM4 10.248C4 9.14648 3.10156 8.24805 2 8.24805C0.898438 8.24805 -3.88963e-07 9.14648 -4.37114e-07 10.248C-4.85265e-07 11.3496 0.898437 12.248 2 12.248C3.10156 12.248 4 11.3496 4 10.248ZM4 18.248C4 17.1465 3.10156 16.248 2 16.248C0.898437 16.248 -7.38654e-07 17.1465 -7.86805e-07 18.248C-8.34956e-07 19.3496 0.898437 20.248 2 20.248C3.10156 20.248 4 19.3496 4 18.248Z" fill="#B0B0B0"/>
</svg>
