<svg width="25" height="25" viewBox="0 0 25 25" fill="none" xmlns="http://www.w3.org/2000/svg">
<path d="M2.75331 8.00049C2.55443 8.00051 2.36371 8.07952 2.22308 8.22015C2.08245 8.36078 2.00344 8.5515 2.00342 8.75038V17.7491C2.00344 17.948 2.08245 18.1387 2.22308 18.2793C2.36371 18.42 2.55443 18.499 2.75331 18.499H22.2506C22.4494 18.499 22.6402 18.42 22.7808 18.2793C22.9214 18.1387 23.0004 17.948 23.0005 17.7491V8.75038C23.0004 8.5515 22.9214 8.36078 22.7808 8.22015C22.6402 8.07952 22.4494 8.00051 22.2506 8.00049H2.75331ZM3.50321 9.50028H21.5007V16.9992H3.50321V9.50028ZM5.003 11.0001V15.4994H6.50278V11.0001H5.003Z" fill="#FF4F00"/>
</svg>
