<svg width="20" height="21" viewBox="0 0 20 21" fill="none" xmlns="http://www.w3.org/2000/svg">
<path d="M2.34758 0.751373C1.11143 0.751373 0.0979004 1.7649 0.0979004 3.00106V17.9989C0.0979004 19.2351 1.11143 20.2486 2.34758 20.2486H17.3455C18.5816 20.2486 19.5952 19.2351 19.5952 17.9989V14.2495L18.0954 15.7493V17.9989C18.0954 18.4208 17.7673 18.7488 17.3455 18.7488H2.34758C1.92577 18.7488 1.59769 18.4208 1.59769 17.9989V3.00106C1.59769 2.57924 1.92577 2.25116 2.34758 2.25116H17.3455C17.7673 2.25116 18.0954 2.57924 18.0954 3.00106V5.25074L19.5952 6.75053V3.00106C19.5952 1.7649 18.5816 0.751373 17.3455 0.751373H2.34758ZM14.6915 5.28589L13.6253 6.34043L17.035 9.75011H6.09706V11.2499H17.035L13.6253 14.6537L14.6915 15.72L19.9057 10.5L14.6915 5.28589Z" fill="#FF4F00"/>
</svg>
