<svg width="25" height="25" viewBox="0 0 25 25" fill="none" xmlns="http://www.w3.org/2000/svg">
<path d="M7.25212 3.50122C6.0185 3.50122 5.00244 4.51728 5.00244 5.7509V12.5H6.50223V5.7509C6.50223 5.32876 6.82998 5.00101 7.25212 5.00101H14.0012V9.50038H18.5005V12.5H20.0003V8.43998L15.0616 3.50122H7.25212ZM15.501 6.06141L17.4401 8.00059H15.501V6.06141ZM5.00244 13.9997V21.4987H6.50223V18.4991H7.25212C8.48575 18.4991 9.50181 17.483 9.50181 16.2494C9.50181 15.0158 8.48575 13.9997 7.25212 13.9997H5.00244ZM11.0016 13.9997V21.4987H13.2513C14.4849 21.4987 15.501 20.4826 15.501 19.249V16.2494C15.501 15.0158 14.4849 13.9997 13.2513 13.9997H11.0016ZM17.0008 13.9997V21.4987H18.5005V18.4991H20.0003V16.9993H18.5005V15.4995H21.5001V13.9997H17.0008ZM6.50223 15.4995H7.25212C7.67427 15.4995 8.00202 15.8273 8.00202 16.2494C8.00202 16.6716 7.67427 16.9993 7.25212 16.9993H6.50223V15.4995ZM12.5014 15.4995H13.2513C13.6734 15.4995 14.0012 15.8273 14.0012 16.2494V19.249C14.0012 19.6711 13.6734 19.9989 13.2513 19.9989H12.5014V15.4995Z" fill="#FF4F00"/>
</svg>
