<svg width="25" height="25" viewBox="0 0 25 25" fill="none" xmlns="http://www.w3.org/2000/svg">
<g clip-path="url(#clip0_945_3836)">
<path d="M12.5017 3.50122C9.75407 3.50122 7.36378 5.41111 6.70176 8.03574C5.0848 8.27594 3.80178 9.56482 3.54986 11.2404C1.75715 11.8497 0.503418 13.5604 0.503418 15.4995C0.503418 17.9777 2.52462 19.9989 5.00278 19.9989H9.50215V18.4991H5.00278C3.35067 18.4991 2.00321 17.1516 2.00321 15.4995C2.00321 14.0759 3.01674 12.8398 4.40521 12.5585L5.02036 12.3828L5.00278 11.7501C5.00278 10.508 6.01046 9.50038 7.17631 9.49452L7.32863 9.51209H7.97893L8.07266 8.86179C8.38317 6.65898 10.2872 5.00101 12.5017 5.00101C14.312 5.00101 15.9407 6.07898 16.6496 7.74281L16.9132 8.38725L17.5694 8.16463C17.9092 8.05331 18.2138 8.00059 18.5009 8.00059C20.153 8.00059 21.5005 9.34805 21.5005 11.0002C21.5005 11.3517 21.4302 11.709 21.2896 12.0664L21.0786 12.6406L21.5942 12.9686C22.473 13.5252 23.0002 14.4684 23.0002 15.4995C23.0002 17.1516 21.6528 18.4991 20.0007 18.4991H14.0015V19.9989H20.0007C22.4788 19.9989 24.5 17.9777 24.5 15.4995C24.5 14.1521 23.9025 12.8925 22.8714 12.043C22.9592 11.6973 23.0002 11.3458 23.0002 11.0002C23.0002 8.27008 20.5865 6.04383 17.7393 6.5711C16.6847 4.69051 14.6987 3.50122 12.5017 3.50122ZM11.7518 12.5L8.00236 16.9993H11.0019V22.9985H12.5017V16.9993H15.5013L11.7518 12.5Z" fill="#FF4F00"/>
</g>
<defs>
<clipPath id="clip0_945_3836">
<rect width="23.9966" height="23.9966" fill="white" transform="translate(0.503418 0.501709)"/>
</clipPath>
</defs>
</svg>
