<svg width="25" height="25" viewBox="0 0 25 25" fill="none" xmlns="http://www.w3.org/2000/svg">
<path d="M4.25261 3.50122C3.01646 3.50122 2.00293 4.51475 2.00293 5.7509V19.249C2.00293 20.4852 3.01646 21.4987 4.25261 21.4987H20.7503C21.9864 21.4987 23 20.4852 23 19.249V5.7509C23 4.51475 21.9864 3.50122 20.7503 3.50122H4.25261ZM4.25261 5.00101H20.7503C21.1721 5.00101 21.5002 5.32909 21.5002 5.7509V15.9389L16.2509 10.6897L13.2513 13.6892L8.75198 9.18987L3.50272 14.4391V5.7509C3.50272 5.32909 3.8308 5.00101 4.25261 5.00101ZM18.5006 6.5008C17.6746 6.5008 17.0008 7.17453 17.0008 8.00059C17.0008 8.82664 17.6746 9.50038 18.5006 9.50038C19.3267 9.50038 20.0004 8.82664 20.0004 8.00059C20.0004 7.17453 19.3267 6.5008 18.5006 6.5008ZM8.75198 11.3107L14.2239 16.7826L15.2784 15.7163L14.3117 14.7496L16.2509 12.8105L21.5002 18.0597V19.249C21.5002 19.6708 21.1721 19.9989 20.7503 19.9989H4.25261C3.8308 19.9989 3.50272 19.6708 3.50272 19.249V16.5599L8.75198 11.3107Z" fill="#FF4F00"/>
</svg>
