<svg width="25" height="25" viewBox="0 0 25 25" fill="none" xmlns="http://www.w3.org/2000/svg">
<path d="M4.2531 5.0011C3.01695 5.0011 2.00342 6.01463 2.00342 7.25078V17.7493C2.00342 18.9796 3.01695 19.999 4.2531 19.999H20.7508C21.9869 19.999 23.0005 18.9855 23.0005 17.7493V7.25078C23.0005 6.01463 21.9811 5.0011 20.7508 5.0011H4.2531ZM4.2531 6.50089H20.7508C21.1726 6.50089 21.5007 6.82897 21.5007 7.25078V8.00068H3.50321V7.25078C3.50321 6.82311 3.82543 6.50089 4.2531 6.50089ZM3.50321 9.50046H21.5007V17.7493C21.5007 18.1711 21.1726 18.4992 20.7508 18.4992H4.2531C3.83129 18.4992 3.50321 18.1711 3.50321 17.7493V9.50046Z" fill="#FF4F00"/>
</svg>
