<svg width="32" height="29" viewBox="0 0 32 29" fill="none" xmlns="http://www.w3.org/2000/svg">
<path d="M25.0401 0.247598C25.1826 0.262598 25.3176 0.327598 25.4201 0.427598L31.8201 6.8276C31.9451 6.9476 32.0151 7.1151 32.0151 7.2876C32.0151 7.4601 31.9451 7.6276 31.8201 7.7476L25.4201 14.1476C25.1651 14.4026 24.7551 14.4026 24.5001 14.1476C24.2451 13.8926 24.2451 13.4826 24.5001 13.2276L29.8001 7.9276H10.8801C5.59764 7.9276 1.28014 12.2451 1.28014 17.5276C1.28014 22.7776 5.54264 27.0726 10.7801 27.1276C10.8126 27.1276 10.8476 27.1276 10.8801 27.1276H21.7601V27.5676C21.7976 27.6926 21.7976 27.8226 21.7601 27.9476V28.4076H10.8801C10.8601 28.4076 10.8401 28.4076 10.8201 28.4076C10.8126 28.4076 10.8076 28.4076 10.8001 28.4076C10.7651 28.4076 10.7351 28.3876 10.7001 28.3876C4.80264 28.2876 0.000137434 23.4476 0.000137434 17.5276C0.000137434 11.6076 4.80264 6.7676 10.7001 6.6676C10.7251 6.6601 10.7526 6.6526 10.7801 6.6476C10.8151 6.6476 10.8451 6.6476 10.8801 6.6476H29.8001L24.5001 1.3476C24.2926 1.1551 24.2376 0.850098 24.3626 0.597598C24.4851 0.342598 24.7626 0.202598 25.0401 0.247598ZM32.0001 27.1276V28.4076H30.7201V27.1276H32.0001ZM29.4401 27.1276V28.4076H28.1601V27.1276H29.4401ZM26.8801 27.1276V28.4076H25.6001V27.1276H26.8801ZM24.3201 27.1276V28.4076H23.0401V27.1276H24.3201Z" fill="#B0B0B0"/>
</svg>
