<svg width="25" height="25" viewBox="0 0 25 25" fill="none" xmlns="http://www.w3.org/2000/svg">
<path d="M4.23503 5.01855C2.99888 5.01855 1.98535 6.03208 1.98535 7.26824V17.7668C1.98535 19.0029 2.99888 20.0164 4.23503 20.0164H20.7327C21.963 20.0164 22.9824 19.0029 22.9824 17.7668V7.26824C22.9824 6.03208 21.9689 5.01855 20.7327 5.01855H4.23503ZM4.23503 6.51834H20.7327C21.1545 6.51834 21.4826 6.84642 21.4826 7.26824V17.7668C21.4826 18.1886 21.1545 18.5167 20.7327 18.5167H4.23503C3.81322 18.5167 3.48514 18.1886 3.48514 17.7668V7.26824C3.48514 6.84642 3.81322 6.51834 4.23503 6.51834ZM9.50187 7.98884V17.0169L17.0008 12.4999L9.50187 7.98884ZM11.0017 10.6369L14.095 12.4999L11.0017 14.3629V10.6369Z" fill="#FF4F00"/>
</svg>
