<svg width="52" height="53" viewBox="0 0 52 53" fill="none" xmlns="http://www.w3.org/2000/svg">
<rect y="0.5" width="52" height="52" rx="12" fill="#F5F5F5"/>
<path d="M26.0469 13.3789C18.875 13.3789 13.0469 19.207 13.0469 26.3789C13.0469 28.9727 13.8828 31.3477 15.1875 33.3789L12.9531 39.6211L19.9063 37.6602C21.75 38.668 23.7969 39.3789 26.0469 39.3789C33.2188 39.3789 39.0469 33.5508 39.0469 26.3789C39.0469 19.207 33.2188 13.3789 26.0469 13.3789ZM26.0469 15.3789C32.1328 15.3789 37.0469 20.293 37.0469 26.3789C37.0469 32.4648 32.1328 37.3789 26.0469 37.3789C23.9609 37.3789 22.0313 36.793 20.3594 35.7852L19.9922 35.5586L16.1406 36.6367L17.3906 33.168L17.0859 32.7461C15.8047 30.9414 15.0469 28.7539 15.0469 26.3789C15.0469 20.293 19.9609 15.3789 26.0469 15.3789ZM21.1719 19.3789C20.9453 19.3789 20.5703 19.4727 20.25 19.8477C19.9375 20.2148 19.0469 21.1133 19.0469 22.9414C19.0469 24.7617 20.2813 26.5273 20.4531 26.7773C20.625 27.0273 22.8828 30.7695 26.3359 32.3789C27.1563 32.7617 27.7969 32.9883 28.2969 33.1602C29.125 33.4414 29.875 33.4023 30.4688 33.3086C31.1328 33.1992 32.5078 32.4102 32.7969 31.543C33.0781 30.6758 33.0859 29.9336 32.9922 29.7773C32.9141 29.6211 32.6797 29.5273 32.3359 29.3477C31.9922 29.1602 30.2969 28.2617 29.9844 28.1445C29.6719 28.0117 29.4375 27.957 29.2031 28.3242C28.9766 28.6992 28.3203 29.5352 28.1172 29.7773C27.9141 30.0273 27.7188 30.0586 27.375 29.8711C27.0234 29.6836 25.9141 29.293 24.6016 28.0273C23.5781 27.043 22.8828 25.832 22.6875 25.457C22.4844 25.082 22.6641 24.8867 22.8359 24.707C22.9922 24.5352 23.1797 24.2695 23.3516 24.0508C23.5234 23.8398 23.5781 23.6758 23.6953 23.4336C23.8125 23.1836 23.7578 22.9648 23.6719 22.7852C23.5781 22.5977 22.8906 20.7695 22.6094 20.0273C22.3281 19.3086 22.0391 19.4023 21.8281 19.3945C21.6328 19.3789 21.3984 19.3789 21.1719 19.3789Z" fill="#B0B0B0"/>
</svg>
