<svg width="27" height="28" viewBox="0 0 27 28" fill="none" xmlns="http://www.w3.org/2000/svg">
<path d="M13.7256 0.878906C6.55371 0.878906 0.725586 6.70703 0.725586 13.8789C0.725586 16.4727 1.56152 18.8477 2.86621 20.8789L0.631836 27.1211L7.58496 25.1602C9.42871 26.168 11.4756 26.8789 13.7256 26.8789C20.8975 26.8789 26.7256 21.0508 26.7256 13.8789C26.7256 6.70703 20.8975 0.878906 13.7256 0.878906ZM13.7256 2.87891C19.8115 2.87891 24.7256 7.79297 24.7256 13.8789C24.7256 19.9648 19.8115 24.8789 13.7256 24.8789C11.6396 24.8789 9.70996 24.293 8.03809 23.2852L7.6709 23.0586L3.81934 24.1367L5.06934 20.668L4.76465 20.2461C3.4834 18.4414 2.72559 16.2539 2.72559 13.8789C2.72559 7.79297 7.63965 2.87891 13.7256 2.87891ZM8.85059 6.87891C8.62402 6.87891 8.24902 6.97266 7.92871 7.34766C7.61621 7.71484 6.72559 8.61328 6.72559 10.4414C6.72559 12.2617 7.95996 14.0273 8.13184 14.2773C8.30371 14.5273 10.5615 18.2695 14.0146 19.8789C14.835 20.2617 15.4756 20.4883 15.9756 20.6602C16.8037 20.9414 17.5537 20.9023 18.1475 20.8086C18.8115 20.6992 20.1865 19.9102 20.4756 19.043C20.7568 18.1758 20.7646 17.4336 20.6709 17.2773C20.5928 17.1211 20.3584 17.0273 20.0146 16.8477C19.6709 16.6602 17.9756 15.7617 17.6631 15.6445C17.3506 15.5117 17.1162 15.457 16.8818 15.8242C16.6553 16.1992 15.999 17.0352 15.7959 17.2773C15.5928 17.5273 15.3975 17.5586 15.0537 17.3711C14.7021 17.1836 13.5928 16.793 12.2803 15.5273C11.2568 14.543 10.5615 13.332 10.3662 12.957C10.1631 12.582 10.3428 12.3867 10.5146 12.207C10.6709 12.0352 10.8584 11.7695 11.0303 11.5508C11.2021 11.3398 11.2568 11.1758 11.374 10.9336C11.4912 10.6836 11.4365 10.4648 11.3506 10.2852C11.2568 10.0977 10.5693 8.26953 10.2881 7.52734C10.0068 6.80859 9.71777 6.90234 9.50684 6.89453C9.31152 6.87891 9.07715 6.87891 8.85059 6.87891Z" fill="#B0B0B0"/>
</svg>
