<svg width="57" height="58" viewBox="0 0 57 58" fill="none" xmlns="http://www.w3.org/2000/svg">
<g filter="url(#filter0_dd_363_9163)">
<rect x="2.67871" width="52" height="52" rx="12" fill="#F5F5F5"/>
<path d="M28.7256 12.8789C21.5537 12.8789 15.7256 18.707 15.7256 25.8789C15.7256 28.4727 16.5615 30.8477 17.8662 32.8789L15.6318 39.1211L22.585 37.1602C24.4287 38.168 26.4756 38.8789 28.7256 38.8789C35.8975 38.8789 41.7256 33.0508 41.7256 25.8789C41.7256 18.707 35.8975 12.8789 28.7256 12.8789ZM28.7256 14.8789C34.8115 14.8789 39.7256 19.793 39.7256 25.8789C39.7256 31.9648 34.8115 36.8789 28.7256 36.8789C26.6396 36.8789 24.71 36.293 23.0381 35.2852L22.6709 35.0586L18.8193 36.1367L20.0693 32.668L19.7646 32.2461C18.4834 30.4414 17.7256 28.2539 17.7256 25.8789C17.7256 19.793 22.6396 14.8789 28.7256 14.8789ZM23.8506 18.8789C23.624 18.8789 23.249 18.9727 22.9287 19.3477C22.6162 19.7148 21.7256 20.6133 21.7256 22.4414C21.7256 24.2617 22.96 26.0273 23.1318 26.2773C23.3037 26.5273 25.5615 30.2695 29.0146 31.8789C29.835 32.2617 30.4756 32.4883 30.9756 32.6602C31.8037 32.9414 32.5537 32.9023 33.1475 32.8086C33.8115 32.6992 35.1865 31.9102 35.4756 31.043C35.7568 30.1758 35.7646 29.4336 35.6709 29.2773C35.5928 29.1211 35.3584 29.0273 35.0146 28.8477C34.6709 28.6602 32.9756 27.7617 32.6631 27.6445C32.3506 27.5117 32.1162 27.457 31.8818 27.8242C31.6553 28.1992 30.999 29.0352 30.7959 29.2773C30.5928 29.5273 30.3975 29.5586 30.0537 29.3711C29.7021 29.1836 28.5928 28.793 27.2803 27.5273C26.2568 26.543 25.5615 25.332 25.3662 24.957C25.1631 24.582 25.3428 24.3867 25.5146 24.207C25.6709 24.0352 25.8584 23.7695 26.0303 23.5508C26.2021 23.3398 26.2568 23.1758 26.374 22.9336C26.4912 22.6836 26.4365 22.4648 26.3506 22.2852C26.2568 22.0977 25.5693 20.2695 25.2881 19.5273C25.0068 18.8086 24.7178 18.9023 24.5068 18.8945C24.3115 18.8789 24.0771 18.8789 23.8506 18.8789Z" fill="#B0B0B0"/>
</g>
<defs>
<filter id="filter0_dd_363_9163" x="0.678711" y="0" width="56" height="58" filterUnits="userSpaceOnUse" color-interpolation-filters="sRGB">
<feFlood flood-opacity="0" result="BackgroundImageFix"/>
<feColorMatrix in="SourceAlpha" type="matrix" values="0 0 0 0 0 0 0 0 0 0 0 0 0 0 0 0 0 0 127 0" result="hardAlpha"/>
<feMorphology radius="2" operator="erode" in="SourceAlpha" result="effect1_dropShadow_363_9163"/>
<feOffset dy="4"/>
<feGaussianBlur stdDeviation="2"/>
<feColorMatrix type="matrix" values="0 0 0 0 0.0941176 0 0 0 0 0.152941 0 0 0 0 0.294118 0 0 0 0.08 0"/>
<feBlend mode="normal" in2="BackgroundImageFix" result="effect1_dropShadow_363_9163"/>
<feColorMatrix in="SourceAlpha" type="matrix" values="0 0 0 0 0 0 0 0 0 0 0 0 0 0 0 0 0 0 127 0" result="hardAlpha"/>
<feMorphology radius="2" operator="erode" in="SourceAlpha" result="effect2_dropShadow_363_9163"/>
<feOffset dy="2"/>
<feGaussianBlur stdDeviation="2"/>
<feColorMatrix type="matrix" values="0 0 0 0 0.0941176 0 0 0 0 0.152941 0 0 0 0 0.294118 0 0 0 0.12 0"/>
<feBlend mode="normal" in2="effect1_dropShadow_363_9163" result="effect2_dropShadow_363_9163"/>
<feBlend mode="normal" in="SourceGraphic" in2="effect2_dropShadow_363_9163" result="shape"/>
</filter>
</defs>
</svg>
